<svg xmlns="http://www.w3.org/2000/svg" viewBox="0 0 600 600" width="600" height="600">
<defs>
  <radialGradient id="bg" cx="50%" cy="38%" r="75%">
    <stop offset="0" stop-color="#fdf6ec"/><stop offset="1" stop-color="#efe0c9"/>
  </radialGradient>
  <filter id="sh" x="-30%" y="-30%" width="160%" height="160%">
    <feGaussianBlur in="SourceAlpha" stdDeviation="14"/><feOffset dy="18"/>
    <feComponentTransfer><feFuncA type="linear" slope=".28"/></feComponentTransfer>
    <feMerge><feMergeNode/><feMergeNode in="SourceGraphic"/></feMerge>
  </filter>
  <pattern id="weave" width="10" height="10" patternUnits="userSpaceOnUse">
    <path d="M0 2.5h10M0 7.5h10" stroke="#000" stroke-opacity=".07" stroke-width="2.4"/>
    <path d="M2.5 0v10M7.5 0v10" stroke="#fff" stroke-opacity=".10" stroke-width="2.4"/>
  </pattern>
  <pattern id="flute" width="8" height="8" patternUnits="userSpaceOnUse">
    <path d="M0 4q2-4 4 0t4 0" fill="none" stroke="#000" stroke-opacity=".08" stroke-width="1.2"/>
  </pattern>
  <linearGradient id="gloss" x1="0" x2="1">
    <stop offset="0" stop-color="#fff" stop-opacity="0"/><stop offset=".45" stop-color="#fff" stop-opacity=".35"/>
    <stop offset=".55" stop-color="#fff" stop-opacity="0"/>
  </linearGradient>
  
</defs>
<rect width="600" height="600" fill="url(#bg)"/>
<circle cx="300" cy="300" r="230" fill="#fff" fill-opacity=".06"/>
<ellipse cx="300" cy="530" rx="200" ry="22" fill="#000" fill-opacity=".10"/>
<g filter="url(#sh)">
<path d="M180 105 L420 105 L440 485 L160 485 Z" fill="#2d6a4f"/>
<path d="M180 105 L420 105 L440 485 L160 485 Z" fill="url(#weave)" opacity=".5"/>
<path d="M160 300 L440 300 L440 485 L160 485 Z" fill="#f4a261"/>
<circle cx="300" cy="300" r="78" fill="#fff"/>
<circle cx="300" cy="300" r="66" fill="#f4a261"/>
<path d="M262 318 q38-70 76 0" fill="none" stroke="#fff" stroke-width="10" stroke-linecap="round"/>
<circle cx="300" cy="282" r="12" fill="#fff"/>
<g transform="translate(300 180) scale(1.1)" fill="#fff" font-family="Arial,Helvetica,sans-serif" text-anchor="middle"><text font-size="34" font-weight="900" letter-spacing="3">ZAINCO</text><text y="22" font-size="11" letter-spacing="4" opacity=".85">PACKAGING</text></g>
<text x="300" y="440" text-anchor="middle" font-family="Arial" font-weight="800" font-size="26" fill="#fff">PREMIUM RICE</text>
<path d="M180 105 L420 105 L424 130 L178 130 Z" fill="#1f4a37"/>
<path d="M190 105 L260 105 L230 485 L175 485 Z" fill="url(#gloss)"/>
</g>
</svg>