<svg xmlns="http://www.w3.org/2000/svg" viewBox="0 0 600 600" width="600" height="600">
<defs>
  <radialGradient id="bg" cx="50%" cy="38%" r="75%">
    <stop offset="0" stop-color="#f3f0f8"/><stop offset="1" stop-color="#ddd5ea"/>
  </radialGradient>
  <filter id="sh" x="-30%" y="-30%" width="160%" height="160%">
    <feGaussianBlur in="SourceAlpha" stdDeviation="14"/><feOffset dy="18"/>
    <feComponentTransfer><feFuncA type="linear" slope=".28"/></feComponentTransfer>
    <feMerge><feMergeNode/><feMergeNode in="SourceGraphic"/></feMerge>
  </filter>
  <pattern id="weave" width="10" height="10" patternUnits="userSpaceOnUse">
    <path d="M0 2.5h10M0 7.5h10" stroke="#000" stroke-opacity=".07" stroke-width="2.4"/>
    <path d="M2.5 0v10M7.5 0v10" stroke="#fff" stroke-opacity=".10" stroke-width="2.4"/>
  </pattern>
  <pattern id="flute" width="8" height="8" patternUnits="userSpaceOnUse">
    <path d="M0 4q2-4 4 0t4 0" fill="none" stroke="#000" stroke-opacity=".08" stroke-width="1.2"/>
  </pattern>
  <linearGradient id="gloss" x1="0" x2="1">
    <stop offset="0" stop-color="#fff" stop-opacity="0"/><stop offset=".45" stop-color="#fff" stop-opacity=".35"/>
    <stop offset=".55" stop-color="#fff" stop-opacity="0"/>
  </linearGradient>
  
</defs>
<rect width="600" height="600" fill="url(#bg)"/>
<circle cx="300" cy="300" r="230" fill="#fff" fill-opacity=".06"/>
<ellipse cx="300" cy="530" rx="200" ry="22" fill="#000" fill-opacity=".10"/>
<g filter="url(#sh)">
<path d="M175 130 Q170 90 205 95 L215 135 Z M425 130 Q430 90 395 95 L385 135 Z" fill="none" stroke="#b4b6b7" stroke-width="16"/>
<path d="M165 130 L435 130 L455 470 L145 470 Z" fill="#f1f3f5"/>
<path d="M165 130 L435 130 L455 470 L145 470 Z" fill="url(#weave)"/>
<path d="M165 130 L180 470 M435 130 L420 470" stroke="#b4b6b7" stroke-width="12"/>
<path d="M260 95 L340 95 L345 130 L255 130 Z" fill="#f3f4f6"/>
<rect x="225" y="230" width="150" height="150" rx="6" fill="#fff" fill-opacity=".9"/>
<g transform="translate(300 290) scale(0.95)" fill="#b4b6b7" font-family="Arial,Helvetica,sans-serif" text-anchor="middle"><text font-size="34" font-weight="900" letter-spacing="3">ZAINCO</text><text y="22" font-size="11" letter-spacing="4" opacity=".85">PACKAGING</text></g>
<text x="300" y="345" text-anchor="middle" font-family="Arial" font-weight="800" font-size="24" fill="#b4b6b7">1000 KG</text>
<rect x="160" y="470" width="280" height="40" fill="#8a6a43"/><rect x="160" y="470" width="280" height="8" fill="#a5845a"/>
</g>
</svg>