<svg xmlns="http://www.w3.org/2000/svg" viewBox="0 0 600 800" width="600" height="800"><defs>
  <linearGradient id="bgdetailsleeve" x1="0" y1="0" x2="0" y2="1"><stop offset="0" stop-color="#f9f7f3"/><stop offset="1" stop-color="#e9e6e0"/></linearGradient>
  <linearGradient id="fabdetailsleeve" x1="0" y1="0" x2="1" y2="0"><stop offset="0" stop-color="#a48583"/><stop offset=".45" stop-color="#cdaaa7"/><stop offset="1" stop-color="#9c7f7c"/></linearGradient>
  <pattern id="texdetailsleeve" width="6" height="6" patternUnits="userSpaceOnUse" patternTransform="rotate(35)"><line x1="0" y1="0" x2="0" y2="6" stroke="#000" stroke-opacity=".05" stroke-width="2"/></pattern>
  <radialGradient id="vigdetailsleeve" cx=".5" cy=".45" r=".75"><stop offset=".6" stop-color="#000" stop-opacity="0"/><stop offset="1" stop-color="#000" stop-opacity=".16"/></radialGradient>
</defs><rect width="600" height="800" fill="url(#fabdetailsleeve)"/><rect width="600" height="800" fill="url(#texdetailsleeve)"/><path d="M527,0 Q503,400 562,800" stroke="#fff" stroke-opacity=".07" stroke-width="39" fill="none"/><path d="M187,0 Q230,400 167,800" stroke="#fff" stroke-opacity=".07" stroke-width="22" fill="none"/><path d="M209,0 Q249,400 167,800" stroke="#fff" stroke-opacity=".07" stroke-width="33" fill="none"/><path d="M211,0 Q158,400 202,800" stroke="#fff" stroke-opacity=".07" stroke-width="27" fill="none"/><path d="M276,0 Q337,400 327,800" stroke="#fff" stroke-opacity=".07" stroke-width="23" fill="none"/><g transform="translate(553.7,480.7) rotate(83)" opacity="1"><ellipse cx="0" cy="-35.2" rx="21.6" ry="35.2" fill="#f9f3eb" stroke="#bab6b0" stroke-width="2.8" transform="rotate(0)"/><line x1="0" y1="-11.3" x2="0" y2="-59.5" stroke="#c7c2bc" stroke-width="1.7" transform="rotate(0)" opacity=".6"/><ellipse cx="0" cy="-35.2" rx="21.6" ry="35.2" fill="#f9f3eb" stroke="#bab6b0" stroke-width="2.8" transform="rotate(45)"/><line x1="0" y1="-11.3" x2="0" y2="-59.5" stroke="#c7c2bc" stroke-width="1.7" transform="rotate(45)" opacity=".6"/><ellipse cx="0" cy="-35.2" rx="21.6" ry="35.2" fill="#f9f3eb" stroke="#bab6b0" stroke-width="2.8" transform="rotate(90)"/><line x1="0" y1="-11.3" x2="0" y2="-59.5" stroke="#c7c2bc" stroke-width="1.7" transform="rotate(90)" opacity=".6"/><ellipse cx="0" cy="-35.2" rx="21.6" ry="35.2" fill="#f9f3eb" stroke="#bab6b0" stroke-width="2.8" transform="rotate(135)"/><line x1="0" y1="-11.3" x2="0" y2="-59.5" stroke="#c7c2bc" stroke-width="1.7" transform="rotate(135)" opacity=".6"/><ellipse cx="0" cy="-35.2" rx="21.6" ry="35.2" fill="#f9f3eb" stroke="#bab6b0" stroke-width="2.8" transform="rotate(180)"/><line x1="0" y1="-11.3" x2="0" y2="-59.5" stroke="#c7c2bc" stroke-width="1.7" transform="rotate(180)" opacity=".6"/><ellipse cx="0" cy="-35.2" rx="21.6" ry="35.2" fill="#f9f3eb" stroke="#bab6b0" stroke-width="2.8" transform="rotate(225)"/><line x1="0" y1="-11.3" x2="0" y2="-59.5" stroke="#c7c2bc" stroke-width="1.7" transform="rotate(225)" opacity=".6"/><ellipse cx="0" cy="-35.2" rx="21.6" ry="35.2" fill="#f9f3eb" stroke="#bab6b0" stroke-width="2.8" transform="rotate(270)"/><line x1="0" y1="-11.3" x2="0" y2="-59.5" stroke="#c7c2bc" stroke-width="1.7" transform="rotate(270)" opacity=".6"/><ellipse cx="0" cy="-35.2" rx="21.6" ry="35.2" fill="#f9f3eb" stroke="#bab6b0" stroke-width="2.8" transform="rotate(315)"/><line x1="0" y1="-11.3" x2="0" y2="-59.5" stroke="#c7c2bc" stroke-width="1.7" transform="rotate(315)" opacity=".6"/><circle r="15.9" fill="#d2ccc4" stroke="#938e89" stroke-width="2.8"/><circle cx="8.5" cy="0.0" r="2.3" fill="#88847f"/><circle cx="6.0" cy="6.0" r="2.3" fill="#88847f"/><circle cx="0.0" cy="8.5" r="2.3" fill="#88847f"/><circle cx="-6.0" cy="6.0" r="2.3" fill="#88847f"/><circle cx="-8.5" cy="0.0" r="2.3" fill="#88847f"/><circle cx="-6.0" cy="-6.0" r="2.3" fill="#88847f"/><circle cx="-0.0" cy="-8.5" r="2.3" fill="#88847f"/><circle cx="6.0" cy="-6.0" r="2.3" fill="#88847f"/></g><g transform="translate(71.8,275.7) rotate(32)" opacity="1"><ellipse cx="0" cy="-32.5" rx="19.9" ry="32.5" fill="#f9f3eb" stroke="#bab6b0" stroke-width="2.6" transform="rotate(0)"/><line x1="0" y1="-10.5" x2="0" y2="-55.0" stroke="#c7c2bc" stroke-width="1.6" transform="rotate(0)" opacity=".6"/><ellipse cx="0" cy="-32.5" rx="19.9" ry="32.5" fill="#f9f3eb" stroke="#bab6b0" stroke-width="2.6" transform="rotate(72)"/><line x1="0" y1="-10.5" x2="0" y2="-55.0" stroke="#c7c2bc" stroke-width="1.6" transform="rotate(72)" opacity=".6"/><ellipse cx="0" cy="-32.5" rx="19.9" ry="32.5" fill="#f9f3eb" stroke="#bab6b0" stroke-width="2.6" transform="rotate(144)"/><line x1="0" y1="-10.5" x2="0" y2="-55.0" stroke="#c7c2bc" stroke-width="1.6" transform="rotate(144)" opacity=".6"/><ellipse cx="0" cy="-32.5" rx="19.9" ry="32.5" fill="#f9f3eb" stroke="#bab6b0" stroke-width="2.6" transform="rotate(216)"/><line x1="0" y1="-10.5" x2="0" y2="-55.0" stroke="#c7c2bc" stroke-width="1.6" transform="rotate(216)" opacity=".6"/><ellipse cx="0" cy="-32.5" rx="19.9" ry="32.5" fill="#f9f3eb" stroke="#bab6b0" stroke-width="2.6" transform="rotate(288)"/><line x1="0" y1="-10.5" x2="0" y2="-55.0" stroke="#c7c2bc" stroke-width="1.6" transform="rotate(288)" opacity=".6"/><circle r="14.7" fill="#d2ccc4" stroke="#938e89" stroke-width="2.6"/><circle cx="7.9" cy="0.0" r="2.1" fill="#88847f"/><circle cx="5.6" cy="5.6" r="2.1" fill="#88847f"/><circle cx="0.0" cy="7.9" r="2.1" fill="#88847f"/><circle cx="-5.6" cy="5.6" r="2.1" fill="#88847f"/><circle cx="-7.9" cy="0.0" r="2.1" fill="#88847f"/><circle cx="-5.6" cy="-5.6" r="2.1" fill="#88847f"/><circle cx="-0.0" cy="-7.9" r="2.1" fill="#88847f"/><circle cx="5.6" cy="-5.6" r="2.1" fill="#88847f"/></g><g transform="translate(417.3,524.2) rotate(84)" opacity="1"><ellipse cx="0" cy="-19.8" rx="12.1" ry="19.8" fill="#f9f3eb" stroke="#bab6b0" stroke-width="1.6" transform="rotate(0)"/><line x1="0" y1="-6.4" x2="0" y2="-33.5" stroke="#c7c2bc" stroke-width="1.0" transform="rotate(0)" opacity=".6"/><ellipse cx="0" cy="-19.8" rx="12.1" ry="19.8" fill="#f9f3eb" stroke="#bab6b0" stroke-width="1.6" transform="rotate(45)"/><line x1="0" y1="-6.4" x2="0" y2="-33.5" stroke="#c7c2bc" stroke-width="1.0" transform="rotate(45)" opacity=".6"/><ellipse cx="0" cy="-19.8" rx="12.1" ry="19.8" fill="#f9f3eb" stroke="#bab6b0" stroke-width="1.6" transform="rotate(90)"/><line x1="0" y1="-6.4" x2="0" y2="-33.5" stroke="#c7c2bc" stroke-width="1.0" transform="rotate(90)" opacity=".6"/><ellipse cx="0" cy="-19.8" rx="12.1" ry="19.8" fill="#f9f3eb" stroke="#bab6b0" stroke-width="1.6" transform="rotate(135)"/><line x1="0" y1="-6.4" x2="0" y2="-33.5" stroke="#c7c2bc" stroke-width="1.0" transform="rotate(135)" opacity=".6"/><ellipse cx="0" cy="-19.8" rx="12.1" ry="19.8" fill="#f9f3eb" stroke="#bab6b0" stroke-width="1.6" transform="rotate(180)"/><line x1="0" y1="-6.4" x2="0" y2="-33.5" stroke="#c7c2bc" stroke-width="1.0" transform="rotate(180)" opacity=".6"/><ellipse cx="0" cy="-19.8" rx="12.1" ry="19.8" fill="#f9f3eb" stroke="#bab6b0" stroke-width="1.6" transform="rotate(225)"/><line x1="0" y1="-6.4" x2="0" y2="-33.5" stroke="#c7c2bc" stroke-width="1.0" transform="rotate(225)" opacity=".6"/><ellipse cx="0" cy="-19.8" rx="12.1" ry="19.8" fill="#f9f3eb" stroke="#bab6b0" stroke-width="1.6" transform="rotate(270)"/><line x1="0" y1="-6.4" x2="0" y2="-33.5" stroke="#c7c2bc" stroke-width="1.0" transform="rotate(270)" opacity=".6"/><ellipse cx="0" cy="-19.8" rx="12.1" ry="19.8" fill="#f9f3eb" stroke="#bab6b0" stroke-width="1.6" transform="rotate(315)"/><line x1="0" y1="-6.4" x2="0" y2="-33.5" stroke="#c7c2bc" stroke-width="1.0" transform="rotate(315)" opacity=".6"/><circle r="8.9" fill="#d2ccc4" stroke="#938e89" stroke-width="1.6"/><circle cx="4.8" cy="0.0" r="1.3" fill="#88847f"/><circle cx="3.4" cy="3.4" r="1.3" fill="#88847f"/><circle cx="0.0" cy="4.8" r="1.3" fill="#88847f"/><circle cx="-3.4" cy="3.4" r="1.3" fill="#88847f"/><circle cx="-4.8" cy="0.0" r="1.3" fill="#88847f"/><circle cx="-3.4" cy="-3.4" r="1.3" fill="#88847f"/><circle cx="-0.0" cy="-4.8" r="1.3" fill="#88847f"/><circle cx="3.4" cy="-3.4" r="1.3" fill="#88847f"/></g><g transform="translate(537.3,673.0) rotate(56)" opacity="1"><ellipse cx="0" cy="-27.4" rx="16.8" ry="27.4" fill="#f9f3eb" stroke="#bab6b0" stroke-width="2.2" transform="rotate(0)"/><line x1="0" y1="-8.8" x2="0" y2="-46.4" stroke="#c7c2bc" stroke-width="1.3" transform="rotate(0)" opacity=".6"/><ellipse cx="0" cy="-27.4" rx="16.8" ry="27.4" fill="#f9f3eb" stroke="#bab6b0" stroke-width="2.2" transform="rotate(45)"/><line x1="0" y1="-8.8" x2="0" y2="-46.4" stroke="#c7c2bc" stroke-width="1.3" transform="rotate(45)" opacity=".6"/><ellipse cx="0" cy="-27.4" rx="16.8" ry="27.4" fill="#f9f3eb" stroke="#bab6b0" stroke-width="2.2" transform="rotate(90)"/><line x1="0" y1="-8.8" x2="0" y2="-46.4" stroke="#c7c2bc" stroke-width="1.3" transform="rotate(90)" opacity=".6"/><ellipse cx="0" cy="-27.4" rx="16.8" ry="27.4" fill="#f9f3eb" stroke="#bab6b0" stroke-width="2.2" transform="rotate(135)"/><line x1="0" y1="-8.8" x2="0" y2="-46.4" stroke="#c7c2bc" stroke-width="1.3" transform="rotate(135)" opacity=".6"/><ellipse cx="0" cy="-27.4" rx="16.8" ry="27.4" fill="#f9f3eb" stroke="#bab6b0" stroke-width="2.2" transform="rotate(180)"/><line x1="0" y1="-8.8" x2="0" y2="-46.4" stroke="#c7c2bc" stroke-width="1.3" transform="rotate(180)" opacity=".6"/><ellipse cx="0" cy="-27.4" rx="16.8" ry="27.4" fill="#f9f3eb" stroke="#bab6b0" stroke-width="2.2" transform="rotate(225)"/><line x1="0" y1="-8.8" x2="0" y2="-46.4" stroke="#c7c2bc" stroke-width="1.3" transform="rotate(225)" opacity=".6"/><ellipse cx="0" cy="-27.4" rx="16.8" ry="27.4" fill="#f9f3eb" stroke="#bab6b0" stroke-width="2.2" transform="rotate(270)"/><line x1="0" y1="-8.8" x2="0" y2="-46.4" stroke="#c7c2bc" stroke-width="1.3" transform="rotate(270)" opacity=".6"/><ellipse cx="0" cy="-27.4" rx="16.8" ry="27.4" fill="#f9f3eb" stroke="#bab6b0" stroke-width="2.2" transform="rotate(315)"/><line x1="0" y1="-8.8" x2="0" y2="-46.4" stroke="#c7c2bc" stroke-width="1.3" transform="rotate(315)" opacity=".6"/><circle r="12.4" fill="#d2ccc4" stroke="#938e89" stroke-width="2.2"/><circle cx="6.6" cy="0.0" r="1.8" fill="#88847f"/><circle cx="4.7" cy="4.7" r="1.8" fill="#88847f"/><circle cx="0.0" cy="6.6" r="1.8" fill="#88847f"/><circle cx="-4.7" cy="4.7" r="1.8" fill="#88847f"/><circle cx="-6.6" cy="0.0" r="1.8" fill="#88847f"/><circle cx="-4.7" cy="-4.7" r="1.8" fill="#88847f"/><circle cx="-0.0" cy="-6.6" r="1.8" fill="#88847f"/><circle cx="4.7" cy="-4.7" r="1.8" fill="#88847f"/></g><g transform="translate(469.6,411.2) rotate(63)" opacity="1"><ellipse cx="0" cy="-27.8" rx="17.1" ry="27.8" fill="#f9f3eb" stroke="#bab6b0" stroke-width="2.2" transform="rotate(0)"/><line x1="0" y1="-9.0" x2="0" y2="-47.1" stroke="#c7c2bc" stroke-width="1.3" transform="rotate(0)" opacity=".6"/><ellipse cx="0" cy="-27.8" rx="17.1" ry="27.8" fill="#f9f3eb" stroke="#bab6b0" stroke-width="2.2" transform="rotate(45)"/><line x1="0" y1="-9.0" x2="0" y2="-47.1" stroke="#c7c2bc" stroke-width="1.3" transform="rotate(45)" opacity=".6"/><ellipse cx="0" cy="-27.8" rx="17.1" ry="27.8" fill="#f9f3eb" stroke="#bab6b0" stroke-width="2.2" transform="rotate(90)"/><line x1="0" y1="-9.0" x2="0" y2="-47.1" stroke="#c7c2bc" stroke-width="1.3" transform="rotate(90)" opacity=".6"/><ellipse cx="0" cy="-27.8" rx="17.1" ry="27.8" fill="#f9f3eb" stroke="#bab6b0" stroke-width="2.2" transform="rotate(135)"/><line x1="0" y1="-9.0" x2="0" y2="-47.1" stroke="#c7c2bc" stroke-width="1.3" transform="rotate(135)" opacity=".6"/><ellipse cx="0" cy="-27.8" rx="17.1" ry="27.8" fill="#f9f3eb" stroke="#bab6b0" stroke-width="2.2" transform="rotate(180)"/><line x1="0" y1="-9.0" x2="0" y2="-47.1" stroke="#c7c2bc" stroke-width="1.3" transform="rotate(180)" opacity=".6"/><ellipse cx="0" cy="-27.8" rx="17.1" ry="27.8" fill="#f9f3eb" stroke="#bab6b0" stroke-width="2.2" transform="rotate(225)"/><line x1="0" y1="-9.0" x2="0" y2="-47.1" stroke="#c7c2bc" stroke-width="1.3" transform="rotate(225)" opacity=".6"/><ellipse cx="0" cy="-27.8" rx="17.1" ry="27.8" fill="#f9f3eb" stroke="#bab6b0" stroke-width="2.2" transform="rotate(270)"/><line x1="0" y1="-9.0" x2="0" y2="-47.1" stroke="#c7c2bc" stroke-width="1.3" transform="rotate(270)" opacity=".6"/><ellipse cx="0" cy="-27.8" rx="17.1" ry="27.8" fill="#f9f3eb" stroke="#bab6b0" stroke-width="2.2" transform="rotate(315)"/><line x1="0" y1="-9.0" x2="0" y2="-47.1" stroke="#c7c2bc" stroke-width="1.3" transform="rotate(315)" opacity=".6"/><circle r="12.6" fill="#d2ccc4" stroke="#938e89" stroke-width="2.2"/><circle cx="6.7" cy="0.0" r="1.8" fill="#88847f"/><circle cx="4.8" cy="4.8" r="1.8" fill="#88847f"/><circle cx="0.0" cy="6.7" r="1.8" fill="#88847f"/><circle cx="-4.8" cy="4.8" r="1.8" fill="#88847f"/><circle cx="-6.7" cy="0.0" r="1.8" fill="#88847f"/><circle cx="-4.8" cy="-4.8" r="1.8" fill="#88847f"/><circle cx="-0.0" cy="-6.7" r="1.8" fill="#88847f"/><circle cx="4.8" cy="-4.8" r="1.8" fill="#88847f"/></g><g transform="translate(104.6,341.6) rotate(51)" opacity="1"><ellipse cx="0" cy="-21.9" rx="13.4" ry="21.9" fill="#f9f3eb" stroke="#bab6b0" stroke-width="1.8" transform="rotate(0)"/><line x1="0" y1="-7.1" x2="0" y2="-37.1" stroke="#c7c2bc" stroke-width="1.1" transform="rotate(0)" opacity=".6"/><ellipse cx="0" cy="-21.9" rx="13.4" ry="21.9" fill="#f9f3eb" stroke="#bab6b0" stroke-width="1.8" transform="rotate(60)"/><line x1="0" y1="-7.1" x2="0" y2="-37.1" stroke="#c7c2bc" stroke-width="1.1" transform="rotate(60)" opacity=".6"/><ellipse cx="0" cy="-21.9" rx="13.4" ry="21.9" fill="#f9f3eb" stroke="#bab6b0" stroke-width="1.8" transform="rotate(120)"/><line x1="0" y1="-7.1" x2="0" y2="-37.1" stroke="#c7c2bc" stroke-width="1.1" transform="rotate(120)" opacity=".6"/><ellipse cx="0" cy="-21.9" rx="13.4" ry="21.9" fill="#f9f3eb" stroke="#bab6b0" stroke-width="1.8" transform="rotate(180)"/><line x1="0" y1="-7.1" x2="0" y2="-37.1" stroke="#c7c2bc" stroke-width="1.1" transform="rotate(180)" opacity=".6"/><ellipse cx="0" cy="-21.9" rx="13.4" ry="21.9" fill="#f9f3eb" stroke="#bab6b0" stroke-width="1.8" transform="rotate(240)"/><line x1="0" y1="-7.1" x2="0" y2="-37.1" stroke="#c7c2bc" stroke-width="1.1" transform="rotate(240)" opacity=".6"/><ellipse cx="0" cy="-21.9" rx="13.4" ry="21.9" fill="#f9f3eb" stroke="#bab6b0" stroke-width="1.8" transform="rotate(300)"/><line x1="0" y1="-7.1" x2="0" y2="-37.1" stroke="#c7c2bc" stroke-width="1.1" transform="rotate(300)" opacity=".6"/><circle r="9.9" fill="#d2ccc4" stroke="#938e89" stroke-width="1.8"/><circle cx="5.3" cy="0.0" r="1.4" fill="#88847f"/><circle cx="3.7" cy="3.7" r="1.4" fill="#88847f"/><circle cx="0.0" cy="5.3" r="1.4" fill="#88847f"/><circle cx="-3.7" cy="3.7" r="1.4" fill="#88847f"/><circle cx="-5.3" cy="0.0" r="1.4" fill="#88847f"/><circle cx="-3.7" cy="-3.7" r="1.4" fill="#88847f"/><circle cx="-0.0" cy="-5.3" r="1.4" fill="#88847f"/><circle cx="3.7" cy="-3.7" r="1.4" fill="#88847f"/></g><g transform="translate(519.0,437.6) rotate(78)" opacity="1"><ellipse cx="0" cy="-33.0" rx="20.2" ry="33.0" fill="#f9f3eb" stroke="#bab6b0" stroke-width="2.7" transform="rotate(0)"/><line x1="0" y1="-10.7" x2="0" y2="-55.9" stroke="#c7c2bc" stroke-width="1.6" transform="rotate(0)" opacity=".6"/><ellipse cx="0" cy="-33.0" rx="20.2" ry="33.0" fill="#f9f3eb" stroke="#bab6b0" stroke-width="2.7" transform="rotate(60)"/><line x1="0" y1="-10.7" x2="0" y2="-55.9" stroke="#c7c2bc" stroke-width="1.6" transform="rotate(60)" opacity=".6"/><ellipse cx="0" cy="-33.0" rx="20.2" ry="33.0" fill="#f9f3eb" stroke="#bab6b0" stroke-width="2.7" transform="rotate(120)"/><line x1="0" y1="-10.7" x2="0" y2="-55.9" stroke="#c7c2bc" stroke-width="1.6" transform="rotate(120)" opacity=".6"/><ellipse cx="0" cy="-33.0" rx="20.2" ry="33.0" fill="#f9f3eb" stroke="#bab6b0" stroke-width="2.7" transform="rotate(180)"/><line x1="0" y1="-10.7" x2="0" y2="-55.9" stroke="#c7c2bc" stroke-width="1.6" transform="rotate(180)" opacity=".6"/><ellipse cx="0" cy="-33.0" rx="20.2" ry="33.0" fill="#f9f3eb" stroke="#bab6b0" stroke-width="2.7" transform="rotate(240)"/><line x1="0" y1="-10.7" x2="0" y2="-55.9" stroke="#c7c2bc" stroke-width="1.6" transform="rotate(240)" opacity=".6"/><ellipse cx="0" cy="-33.0" rx="20.2" ry="33.0" fill="#f9f3eb" stroke="#bab6b0" stroke-width="2.7" transform="rotate(300)"/><line x1="0" y1="-10.7" x2="0" y2="-55.9" stroke="#c7c2bc" stroke-width="1.6" transform="rotate(300)" opacity=".6"/><circle r="14.9" fill="#d2ccc4" stroke="#938e89" stroke-width="2.7"/><circle cx="8.0" cy="0.0" r="2.1" fill="#88847f"/><circle cx="5.7" cy="5.7" r="2.1" fill="#88847f"/><circle cx="0.0" cy="8.0" r="2.1" fill="#88847f"/><circle cx="-5.7" cy="5.7" r="2.1" fill="#88847f"/><circle cx="-8.0" cy="0.0" r="2.1" fill="#88847f"/><circle cx="-5.7" cy="-5.7" r="2.1" fill="#88847f"/><circle cx="-0.0" cy="-8.0" r="2.1" fill="#88847f"/><circle cx="5.7" cy="-5.7" r="2.1" fill="#88847f"/></g><g transform="translate(543.1,459.0) rotate(18)" opacity="1"><ellipse cx="0" cy="-16.4" rx="10.1" ry="16.4" fill="#f9f3eb" stroke="#bab6b0" stroke-width="1.3" transform="rotate(0)"/><line x1="0" y1="-5.3" x2="0" y2="-27.8" stroke="#c7c2bc" stroke-width="0.8" transform="rotate(0)" opacity=".6"/><ellipse cx="0" cy="-16.4" rx="10.1" ry="16.4" fill="#f9f3eb" stroke="#bab6b0" stroke-width="1.3" transform="rotate(72)"/><line x1="0" y1="-5.3" x2="0" y2="-27.8" stroke="#c7c2bc" stroke-width="0.8" transform="rotate(72)" opacity=".6"/><ellipse cx="0" cy="-16.4" rx="10.1" ry="16.4" fill="#f9f3eb" stroke="#bab6b0" stroke-width="1.3" transform="rotate(144)"/><line x1="0" y1="-5.3" x2="0" y2="-27.8" stroke="#c7c2bc" stroke-width="0.8" transform="rotate(144)" opacity=".6"/><ellipse cx="0" cy="-16.4" rx="10.1" ry="16.4" fill="#f9f3eb" stroke="#bab6b0" stroke-width="1.3" transform="rotate(216)"/><line x1="0" y1="-5.3" x2="0" y2="-27.8" stroke="#c7c2bc" stroke-width="0.8" transform="rotate(216)" opacity=".6"/><ellipse cx="0" cy="-16.4" rx="10.1" ry="16.4" fill="#f9f3eb" stroke="#bab6b0" stroke-width="1.3" transform="rotate(288)"/><line x1="0" y1="-5.3" x2="0" y2="-27.8" stroke="#c7c2bc" stroke-width="0.8" transform="rotate(288)" opacity=".6"/><circle r="7.4" fill="#d2ccc4" stroke="#938e89" stroke-width="1.3"/><circle cx="4.0" cy="0.0" r="1.1" fill="#88847f"/><circle cx="2.8" cy="2.8" r="1.1" fill="#88847f"/><circle cx="0.0" cy="4.0" r="1.1" fill="#88847f"/><circle cx="-2.8" cy="2.8" r="1.1" fill="#88847f"/><circle cx="-4.0" cy="0.0" r="1.1" fill="#88847f"/><circle cx="-2.8" cy="-2.8" r="1.1" fill="#88847f"/><circle cx="-0.0" cy="-4.0" r="1.1" fill="#88847f"/><circle cx="2.8" cy="-2.8" r="1.1" fill="#88847f"/></g><g transform="translate(357.0,173.7) rotate(41)" opacity="1"><ellipse cx="0" cy="-31.2" rx="19.1" ry="31.2" fill="#f9f3eb" stroke="#bab6b0" stroke-width="2.5" transform="rotate(0)"/><line x1="0" y1="-10.1" x2="0" y2="-52.8" stroke="#c7c2bc" stroke-width="1.5" transform="rotate(0)" opacity=".6"/><ellipse cx="0" cy="-31.2" rx="19.1" ry="31.2" fill="#f9f3eb" stroke="#bab6b0" stroke-width="2.5" transform="rotate(60)"/><line x1="0" y1="-10.1" x2="0" y2="-52.8" stroke="#c7c2bc" stroke-width="1.5" transform="rotate(60)" opacity=".6"/><ellipse cx="0" cy="-31.2" rx="19.1" ry="31.2" fill="#f9f3eb" stroke="#bab6b0" stroke-width="2.5" transform="rotate(120)"/><line x1="0" y1="-10.1" x2="0" y2="-52.8" stroke="#c7c2bc" stroke-width="1.5" transform="rotate(120)" opacity=".6"/><ellipse cx="0" cy="-31.2" rx="19.1" ry="31.2" fill="#f9f3eb" stroke="#bab6b0" stroke-width="2.5" transform="rotate(180)"/><line x1="0" y1="-10.1" x2="0" y2="-52.8" stroke="#c7c2bc" stroke-width="1.5" transform="rotate(180)" opacity=".6"/><ellipse cx="0" cy="-31.2" rx="19.1" ry="31.2" fill="#f9f3eb" stroke="#bab6b0" stroke-width="2.5" transform="rotate(240)"/><line x1="0" y1="-10.1" x2="0" y2="-52.8" stroke="#c7c2bc" stroke-width="1.5" transform="rotate(240)" opacity=".6"/><ellipse cx="0" cy="-31.2" rx="19.1" ry="31.2" fill="#f9f3eb" stroke="#bab6b0" stroke-width="2.5" transform="rotate(300)"/><line x1="0" y1="-10.1" x2="0" y2="-52.8" stroke="#c7c2bc" stroke-width="1.5" transform="rotate(300)" opacity=".6"/><circle r="14.1" fill="#d2ccc4" stroke="#938e89" stroke-width="2.5"/><circle cx="7.5" cy="0.0" r="2.0" fill="#88847f"/><circle cx="5.3" cy="5.3" r="2.0" fill="#88847f"/><circle cx="0.0" cy="7.5" r="2.0" fill="#88847f"/><circle cx="-5.3" cy="5.3" r="2.0" fill="#88847f"/><circle cx="-7.5" cy="0.0" r="2.0" fill="#88847f"/><circle cx="-5.3" cy="-5.3" r="2.0" fill="#88847f"/><circle cx="-0.0" cy="-7.5" r="2.0" fill="#88847f"/><circle cx="5.3" cy="-5.3" r="2.0" fill="#88847f"/></g><g transform="translate(343.6,653.2) rotate(63)" opacity="1"><ellipse cx="0" cy="-29.2" rx="17.9" ry="29.2" fill="#f9f3eb" stroke="#bab6b0" stroke-width="2.4" transform="rotate(0)"/><line x1="0" y1="-9.4" x2="0" y2="-49.4" stroke="#c7c2bc" stroke-width="1.4" transform="rotate(0)" opacity=".6"/><ellipse cx="0" cy="-29.2" rx="17.9" ry="29.2" fill="#f9f3eb" stroke="#bab6b0" stroke-width="2.4" transform="rotate(72)"/><line x1="0" y1="-9.4" x2="0" y2="-49.4" stroke="#c7c2bc" stroke-width="1.4" transform="rotate(72)" opacity=".6"/><ellipse cx="0" cy="-29.2" rx="17.9" ry="29.2" fill="#f9f3eb" stroke="#bab6b0" stroke-width="2.4" transform="rotate(144)"/><line x1="0" y1="-9.4" x2="0" y2="-49.4" stroke="#c7c2bc" stroke-width="1.4" transform="rotate(144)" opacity=".6"/><ellipse cx="0" cy="-29.2" rx="17.9" ry="29.2" fill="#f9f3eb" stroke="#bab6b0" stroke-width="2.4" transform="rotate(216)"/><line x1="0" y1="-9.4" x2="0" y2="-49.4" stroke="#c7c2bc" stroke-width="1.4" transform="rotate(216)" opacity=".6"/><ellipse cx="0" cy="-29.2" rx="17.9" ry="29.2" fill="#f9f3eb" stroke="#bab6b0" stroke-width="2.4" transform="rotate(288)"/><line x1="0" y1="-9.4" x2="0" y2="-49.4" stroke="#c7c2bc" stroke-width="1.4" transform="rotate(288)" opacity=".6"/><circle r="13.2" fill="#d2ccc4" stroke="#938e89" stroke-width="2.4"/><circle cx="7.1" cy="0.0" r="1.9" fill="#88847f"/><circle cx="5.0" cy="5.0" r="1.9" fill="#88847f"/><circle cx="0.0" cy="7.1" r="1.9" fill="#88847f"/><circle cx="-5.0" cy="5.0" r="1.9" fill="#88847f"/><circle cx="-7.1" cy="0.0" r="1.9" fill="#88847f"/><circle cx="-5.0" cy="-5.0" r="1.9" fill="#88847f"/><circle cx="-0.0" cy="-7.1" r="1.9" fill="#88847f"/><circle cx="5.0" cy="-5.0" r="1.9" fill="#88847f"/></g><g transform="translate(79.8,451.4) rotate(22)" opacity="1"><ellipse cx="0" cy="-22.2" rx="13.6" ry="22.2" fill="#f9f3eb" stroke="#bab6b0" stroke-width="1.8" transform="rotate(0)"/><line x1="0" y1="-7.2" x2="0" y2="-37.6" stroke="#c7c2bc" stroke-width="1.1" transform="rotate(0)" opacity=".6"/><ellipse cx="0" cy="-22.2" rx="13.6" ry="22.2" fill="#f9f3eb" stroke="#bab6b0" stroke-width="1.8" transform="rotate(45)"/><line x1="0" y1="-7.2" x2="0" y2="-37.6" stroke="#c7c2bc" stroke-width="1.1" transform="rotate(45)" opacity=".6"/><ellipse cx="0" cy="-22.2" rx="13.6" ry="22.2" fill="#f9f3eb" stroke="#bab6b0" stroke-width="1.8" transform="rotate(90)"/><line x1="0" y1="-7.2" x2="0" y2="-37.6" stroke="#c7c2bc" stroke-width="1.1" transform="rotate(90)" opacity=".6"/><ellipse cx="0" cy="-22.2" rx="13.6" ry="22.2" fill="#f9f3eb" stroke="#bab6b0" stroke-width="1.8" transform="rotate(135)"/><line x1="0" y1="-7.2" x2="0" y2="-37.6" stroke="#c7c2bc" stroke-width="1.1" transform="rotate(135)" opacity=".6"/><ellipse cx="0" cy="-22.2" rx="13.6" ry="22.2" fill="#f9f3eb" stroke="#bab6b0" stroke-width="1.8" transform="rotate(180)"/><line x1="0" y1="-7.2" x2="0" y2="-37.6" stroke="#c7c2bc" stroke-width="1.1" transform="rotate(180)" opacity=".6"/><ellipse cx="0" cy="-22.2" rx="13.6" ry="22.2" fill="#f9f3eb" stroke="#bab6b0" stroke-width="1.8" transform="rotate(225)"/><line x1="0" y1="-7.2" x2="0" y2="-37.6" stroke="#c7c2bc" stroke-width="1.1" transform="rotate(225)" opacity=".6"/><ellipse cx="0" cy="-22.2" rx="13.6" ry="22.2" fill="#f9f3eb" stroke="#bab6b0" stroke-width="1.8" transform="rotate(270)"/><line x1="0" y1="-7.2" x2="0" y2="-37.6" stroke="#c7c2bc" stroke-width="1.1" transform="rotate(270)" opacity=".6"/><ellipse cx="0" cy="-22.2" rx="13.6" ry="22.2" fill="#f9f3eb" stroke="#bab6b0" stroke-width="1.8" transform="rotate(315)"/><line x1="0" y1="-7.2" x2="0" y2="-37.6" stroke="#c7c2bc" stroke-width="1.1" transform="rotate(315)" opacity=".6"/><circle r="10.0" fill="#d2ccc4" stroke="#938e89" stroke-width="1.8"/><circle cx="5.4" cy="0.0" r="1.4" fill="#88847f"/><circle cx="3.8" cy="3.8" r="1.4" fill="#88847f"/><circle cx="0.0" cy="5.4" r="1.4" fill="#88847f"/><circle cx="-3.8" cy="3.8" r="1.4" fill="#88847f"/><circle cx="-5.4" cy="0.0" r="1.4" fill="#88847f"/><circle cx="-3.8" cy="-3.8" r="1.4" fill="#88847f"/><circle cx="-0.0" cy="-5.4" r="1.4" fill="#88847f"/><circle cx="3.8" cy="-3.8" r="1.4" fill="#88847f"/></g><g transform="translate(519.7,338.1) rotate(83)" opacity="1"><ellipse cx="0" cy="-17.8" rx="10.9" ry="17.8" fill="#f9f3eb" stroke="#bab6b0" stroke-width="1.4" transform="rotate(0)"/><line x1="0" y1="-5.7" x2="0" y2="-30.1" stroke="#c7c2bc" stroke-width="0.9" transform="rotate(0)" opacity=".6"/><ellipse cx="0" cy="-17.8" rx="10.9" ry="17.8" fill="#f9f3eb" stroke="#bab6b0" stroke-width="1.4" transform="rotate(72)"/><line x1="0" y1="-5.7" x2="0" y2="-30.1" stroke="#c7c2bc" stroke-width="0.9" transform="rotate(72)" opacity=".6"/><ellipse cx="0" cy="-17.8" rx="10.9" ry="17.8" fill="#f9f3eb" stroke="#bab6b0" stroke-width="1.4" transform="rotate(144)"/><line x1="0" y1="-5.7" x2="0" y2="-30.1" stroke="#c7c2bc" stroke-width="0.9" transform="rotate(144)" opacity=".6"/><ellipse cx="0" cy="-17.8" rx="10.9" ry="17.8" fill="#f9f3eb" stroke="#bab6b0" stroke-width="1.4" transform="rotate(216)"/><line x1="0" y1="-5.7" x2="0" y2="-30.1" stroke="#c7c2bc" stroke-width="0.9" transform="rotate(216)" opacity=".6"/><ellipse cx="0" cy="-17.8" rx="10.9" ry="17.8" fill="#f9f3eb" stroke="#bab6b0" stroke-width="1.4" transform="rotate(288)"/><line x1="0" y1="-5.7" x2="0" y2="-30.1" stroke="#c7c2bc" stroke-width="0.9" transform="rotate(288)" opacity=".6"/><circle r="8.0" fill="#d2ccc4" stroke="#938e89" stroke-width="1.4"/><circle cx="4.3" cy="0.0" r="1.1" fill="#88847f"/><circle cx="3.0" cy="3.0" r="1.1" fill="#88847f"/><circle cx="0.0" cy="4.3" r="1.1" fill="#88847f"/><circle cx="-3.0" cy="3.0" r="1.1" fill="#88847f"/><circle cx="-4.3" cy="0.0" r="1.1" fill="#88847f"/><circle cx="-3.0" cy="-3.0" r="1.1" fill="#88847f"/><circle cx="-0.0" cy="-4.3" r="1.1" fill="#88847f"/><circle cx="3.0" cy="-3.0" r="1.1" fill="#88847f"/></g><g transform="translate(295.9,160.4) rotate(8)" opacity="1"><ellipse cx="0" cy="-33.3" rx="20.4" ry="33.3" fill="#f9f3eb" stroke="#bab6b0" stroke-width="2.7" transform="rotate(0)"/><line x1="0" y1="-10.7" x2="0" y2="-56.4" stroke="#c7c2bc" stroke-width="1.6" transform="rotate(0)" opacity=".6"/><ellipse cx="0" cy="-33.3" rx="20.4" ry="33.3" fill="#f9f3eb" stroke="#bab6b0" stroke-width="2.7" transform="rotate(60)"/><line x1="0" y1="-10.7" x2="0" y2="-56.4" stroke="#c7c2bc" stroke-width="1.6" transform="rotate(60)" opacity=".6"/><ellipse cx="0" cy="-33.3" rx="20.4" ry="33.3" fill="#f9f3eb" stroke="#bab6b0" stroke-width="2.7" transform="rotate(120)"/><line x1="0" y1="-10.7" x2="0" y2="-56.4" stroke="#c7c2bc" stroke-width="1.6" transform="rotate(120)" opacity=".6"/><ellipse cx="0" cy="-33.3" rx="20.4" ry="33.3" fill="#f9f3eb" stroke="#bab6b0" stroke-width="2.7" transform="rotate(180)"/><line x1="0" y1="-10.7" x2="0" y2="-56.4" stroke="#c7c2bc" stroke-width="1.6" transform="rotate(180)" opacity=".6"/><ellipse cx="0" cy="-33.3" rx="20.4" ry="33.3" fill="#f9f3eb" stroke="#bab6b0" stroke-width="2.7" transform="rotate(240)"/><line x1="0" y1="-10.7" x2="0" y2="-56.4" stroke="#c7c2bc" stroke-width="1.6" transform="rotate(240)" opacity=".6"/><ellipse cx="0" cy="-33.3" rx="20.4" ry="33.3" fill="#f9f3eb" stroke="#bab6b0" stroke-width="2.7" transform="rotate(300)"/><line x1="0" y1="-10.7" x2="0" y2="-56.4" stroke="#c7c2bc" stroke-width="1.6" transform="rotate(300)" opacity=".6"/><circle r="15.0" fill="#d2ccc4" stroke="#938e89" stroke-width="2.7"/><circle cx="8.1" cy="0.0" r="2.1" fill="#88847f"/><circle cx="5.7" cy="5.7" r="2.1" fill="#88847f"/><circle cx="0.0" cy="8.1" r="2.1" fill="#88847f"/><circle cx="-5.7" cy="5.7" r="2.1" fill="#88847f"/><circle cx="-8.1" cy="0.0" r="2.1" fill="#88847f"/><circle cx="-5.7" cy="-5.7" r="2.1" fill="#88847f"/><circle cx="-0.0" cy="-8.1" r="2.1" fill="#88847f"/><circle cx="5.7" cy="-5.7" r="2.1" fill="#88847f"/></g><g transform="translate(435.9,246.1) rotate(78)" opacity="1"><ellipse cx="0" cy="-20.5" rx="12.5" ry="20.5" fill="#f9f3eb" stroke="#bab6b0" stroke-width="1.6" transform="rotate(0)"/><line x1="0" y1="-6.6" x2="0" y2="-34.6" stroke="#c7c2bc" stroke-width="1.0" transform="rotate(0)" opacity=".6"/><ellipse cx="0" cy="-20.5" rx="12.5" ry="20.5" fill="#f9f3eb" stroke="#bab6b0" stroke-width="1.6" transform="rotate(72)"/><line x1="0" y1="-6.6" x2="0" y2="-34.6" stroke="#c7c2bc" stroke-width="1.0" transform="rotate(72)" opacity=".6"/><ellipse cx="0" cy="-20.5" rx="12.5" ry="20.5" fill="#f9f3eb" stroke="#bab6b0" stroke-width="1.6" transform="rotate(144)"/><line x1="0" y1="-6.6" x2="0" y2="-34.6" stroke="#c7c2bc" stroke-width="1.0" transform="rotate(144)" opacity=".6"/><ellipse cx="0" cy="-20.5" rx="12.5" ry="20.5" fill="#f9f3eb" stroke="#bab6b0" stroke-width="1.6" transform="rotate(216)"/><line x1="0" y1="-6.6" x2="0" y2="-34.6" stroke="#c7c2bc" stroke-width="1.0" transform="rotate(216)" opacity=".6"/><ellipse cx="0" cy="-20.5" rx="12.5" ry="20.5" fill="#f9f3eb" stroke="#bab6b0" stroke-width="1.6" transform="rotate(288)"/><line x1="0" y1="-6.6" x2="0" y2="-34.6" stroke="#c7c2bc" stroke-width="1.0" transform="rotate(288)" opacity=".6"/><circle r="9.2" fill="#d2ccc4" stroke="#938e89" stroke-width="1.6"/><circle cx="4.9" cy="0.0" r="1.3" fill="#88847f"/><circle cx="3.5" cy="3.5" r="1.3" fill="#88847f"/><circle cx="0.0" cy="4.9" r="1.3" fill="#88847f"/><circle cx="-3.5" cy="3.5" r="1.3" fill="#88847f"/><circle cx="-4.9" cy="0.0" r="1.3" fill="#88847f"/><circle cx="-3.5" cy="-3.5" r="1.3" fill="#88847f"/><circle cx="-0.0" cy="-4.9" r="1.3" fill="#88847f"/><circle cx="3.5" cy="-3.5" r="1.3" fill="#88847f"/></g><g transform="translate(136.7,756.2) rotate(75)" opacity="1"><ellipse cx="0" cy="-26.4" rx="16.2" ry="26.4" fill="#f9f3eb" stroke="#bab6b0" stroke-width="2.1" transform="rotate(0)"/><line x1="0" y1="-8.5" x2="0" y2="-44.7" stroke="#c7c2bc" stroke-width="1.3" transform="rotate(0)" opacity=".6"/><ellipse cx="0" cy="-26.4" rx="16.2" ry="26.4" fill="#f9f3eb" stroke="#bab6b0" stroke-width="2.1" transform="rotate(45)"/><line x1="0" y1="-8.5" x2="0" y2="-44.7" stroke="#c7c2bc" stroke-width="1.3" transform="rotate(45)" opacity=".6"/><ellipse cx="0" cy="-26.4" rx="16.2" ry="26.4" fill="#f9f3eb" stroke="#bab6b0" stroke-width="2.1" transform="rotate(90)"/><line x1="0" y1="-8.5" x2="0" y2="-44.7" stroke="#c7c2bc" stroke-width="1.3" transform="rotate(90)" opacity=".6"/><ellipse cx="0" cy="-26.4" rx="16.2" ry="26.4" fill="#f9f3eb" stroke="#bab6b0" stroke-width="2.1" transform="rotate(135)"/><line x1="0" y1="-8.5" x2="0" y2="-44.7" stroke="#c7c2bc" stroke-width="1.3" transform="rotate(135)" opacity=".6"/><ellipse cx="0" cy="-26.4" rx="16.2" ry="26.4" fill="#f9f3eb" stroke="#bab6b0" stroke-width="2.1" transform="rotate(180)"/><line x1="0" y1="-8.5" x2="0" y2="-44.7" stroke="#c7c2bc" stroke-width="1.3" transform="rotate(180)" opacity=".6"/><ellipse cx="0" cy="-26.4" rx="16.2" ry="26.4" fill="#f9f3eb" stroke="#bab6b0" stroke-width="2.1" transform="rotate(225)"/><line x1="0" y1="-8.5" x2="0" y2="-44.7" stroke="#c7c2bc" stroke-width="1.3" transform="rotate(225)" opacity=".6"/><ellipse cx="0" cy="-26.4" rx="16.2" ry="26.4" fill="#f9f3eb" stroke="#bab6b0" stroke-width="2.1" transform="rotate(270)"/><line x1="0" y1="-8.5" x2="0" y2="-44.7" stroke="#c7c2bc" stroke-width="1.3" transform="rotate(270)" opacity=".6"/><ellipse cx="0" cy="-26.4" rx="16.2" ry="26.4" fill="#f9f3eb" stroke="#bab6b0" stroke-width="2.1" transform="rotate(315)"/><line x1="0" y1="-8.5" x2="0" y2="-44.7" stroke="#c7c2bc" stroke-width="1.3" transform="rotate(315)" opacity=".6"/><circle r="11.9" fill="#d2ccc4" stroke="#938e89" stroke-width="2.1"/><circle cx="6.4" cy="0.0" r="1.7" fill="#88847f"/><circle cx="4.5" cy="4.5" r="1.7" fill="#88847f"/><circle cx="0.0" cy="6.4" r="1.7" fill="#88847f"/><circle cx="-4.5" cy="4.5" r="1.7" fill="#88847f"/><circle cx="-6.4" cy="0.0" r="1.7" fill="#88847f"/><circle cx="-4.5" cy="-4.5" r="1.7" fill="#88847f"/><circle cx="-0.0" cy="-6.4" r="1.7" fill="#88847f"/><circle cx="4.5" cy="-4.5" r="1.7" fill="#88847f"/></g><g transform="translate(184.4,125.0) rotate(48)" opacity="1"><ellipse cx="0" cy="-32.7" rx="20.0" ry="32.7" fill="#f9f3eb" stroke="#bab6b0" stroke-width="2.6" transform="rotate(0)"/><line x1="0" y1="-10.5" x2="0" y2="-55.3" stroke="#c7c2bc" stroke-width="1.6" transform="rotate(0)" opacity=".6"/><ellipse cx="0" cy="-32.7" rx="20.0" ry="32.7" fill="#f9f3eb" stroke="#bab6b0" stroke-width="2.6" transform="rotate(45)"/><line x1="0" y1="-10.5" x2="0" y2="-55.3" stroke="#c7c2bc" stroke-width="1.6" transform="rotate(45)" opacity=".6"/><ellipse cx="0" cy="-32.7" rx="20.0" ry="32.7" fill="#f9f3eb" stroke="#bab6b0" stroke-width="2.6" transform="rotate(90)"/><line x1="0" y1="-10.5" x2="0" y2="-55.3" stroke="#c7c2bc" stroke-width="1.6" transform="rotate(90)" opacity=".6"/><ellipse cx="0" cy="-32.7" rx="20.0" ry="32.7" fill="#f9f3eb" stroke="#bab6b0" stroke-width="2.6" transform="rotate(135)"/><line x1="0" y1="-10.5" x2="0" y2="-55.3" stroke="#c7c2bc" stroke-width="1.6" transform="rotate(135)" opacity=".6"/><ellipse cx="0" cy="-32.7" rx="20.0" ry="32.7" fill="#f9f3eb" stroke="#bab6b0" stroke-width="2.6" transform="rotate(180)"/><line x1="0" y1="-10.5" x2="0" y2="-55.3" stroke="#c7c2bc" stroke-width="1.6" transform="rotate(180)" opacity=".6"/><ellipse cx="0" cy="-32.7" rx="20.0" ry="32.7" fill="#f9f3eb" stroke="#bab6b0" stroke-width="2.6" transform="rotate(225)"/><line x1="0" y1="-10.5" x2="0" y2="-55.3" stroke="#c7c2bc" stroke-width="1.6" transform="rotate(225)" opacity=".6"/><ellipse cx="0" cy="-32.7" rx="20.0" ry="32.7" fill="#f9f3eb" stroke="#bab6b0" stroke-width="2.6" transform="rotate(270)"/><line x1="0" y1="-10.5" x2="0" y2="-55.3" stroke="#c7c2bc" stroke-width="1.6" transform="rotate(270)" opacity=".6"/><ellipse cx="0" cy="-32.7" rx="20.0" ry="32.7" fill="#f9f3eb" stroke="#bab6b0" stroke-width="2.6" transform="rotate(315)"/><line x1="0" y1="-10.5" x2="0" y2="-55.3" stroke="#c7c2bc" stroke-width="1.6" transform="rotate(315)" opacity=".6"/><circle r="14.8" fill="#d2ccc4" stroke="#938e89" stroke-width="2.6"/><circle cx="7.9" cy="0.0" r="2.1" fill="#88847f"/><circle cx="5.6" cy="5.6" r="2.1" fill="#88847f"/><circle cx="0.0" cy="7.9" r="2.1" fill="#88847f"/><circle cx="-5.6" cy="5.6" r="2.1" fill="#88847f"/><circle cx="-7.9" cy="0.0" r="2.1" fill="#88847f"/><circle cx="-5.6" cy="-5.6" r="2.1" fill="#88847f"/><circle cx="-0.0" cy="-7.9" r="2.1" fill="#88847f"/><circle cx="5.6" cy="-5.6" r="2.1" fill="#88847f"/></g><rect width="600" height="800" fill="url(#vigdetailsleeve)"/></svg>