<svg xmlns="http://www.w3.org/2000/svg" viewBox="0 0 600 800" width="600" height="800"><defs>
  <linearGradient id="bgdetailthread" x1="0" y1="0" x2="0" y2="1"><stop offset="0" stop-color="#f9f7f3"/><stop offset="1" stop-color="#e9e6e0"/></linearGradient>
  <linearGradient id="fabdetailthread" x1="0" y1="0" x2="1" y2="0"><stop offset="0" stop-color="#b9a993"/><stop offset=".45" stop-color="#e4d2ba"/><stop offset="1" stop-color="#b0a18c"/></linearGradient>
  <pattern id="texdetailthread" width="6" height="6" patternUnits="userSpaceOnUse" patternTransform="rotate(35)"><line x1="0" y1="0" x2="0" y2="6" stroke="#000" stroke-opacity=".05" stroke-width="2"/></pattern>
  <radialGradient id="vigdetailthread" cx=".5" cy=".45" r=".75"><stop offset=".6" stop-color="#000" stop-opacity="0"/><stop offset="1" stop-color="#000" stop-opacity=".16"/></radialGradient>
</defs><rect width="600" height="800" fill="url(#fabdetailthread)"/><rect width="600" height="800" fill="url(#texdetailthread)"/><path d="M576,0 Q635,400 604,800" stroke="#fff" stroke-opacity=".07" stroke-width="23" fill="none"/><path d="M198,0 Q233,400 235,800" stroke="#fff" stroke-opacity=".07" stroke-width="18" fill="none"/><path d="M100,0 Q163,400 54,800" stroke="#fff" stroke-opacity=".07" stroke-width="32" fill="none"/><path d="M198,0 Q221,400 241,800" stroke="#fff" stroke-opacity=".07" stroke-width="31" fill="none"/><path d="M235,0 Q206,400 249,800" stroke="#fff" stroke-opacity=".07" stroke-width="32" fill="none"/><path d="M251.6,-20.0 Q271.3,37.6 304.9,100.0 Q313.3,155.8 297.9,220.0 Q287.0,271.6 248.6,340.0 Q239.0,387.1 210.3,460.0 Q199.6,528.6 179.5,580.0 Q211.1,643.7 240.1,700.0 Q283.9,773.9 304.5,820.0 Q306.0,880.6 325.5,940.0 " fill="none" stroke="#8a6a3c" stroke-width="3.2" stroke-linecap="round"/><ellipse cx="304.9" cy="100.0" rx="7.7" ry="16.0" fill="#95784f" transform="rotate(14 304.9 100.0)" opacity=".9"/><ellipse cx="297.9" cy="220.0" rx="7.7" ry="16.0" fill="#95784f" transform="rotate(136 297.9 220.0)" opacity=".9"/><ellipse cx="248.6" cy="340.0" rx="7.7" ry="16.0" fill="#95784f" transform="rotate(52 248.6 340.0)" opacity=".9"/><ellipse cx="210.3" cy="460.0" rx="7.7" ry="16.0" fill="#95784f" transform="rotate(58 210.3 460.0)" opacity=".9"/><ellipse cx="179.5" cy="580.0" rx="7.7" ry="16.0" fill="#95784f" transform="rotate(225 179.5 580.0)" opacity=".9"/><ellipse cx="240.1" cy="700.0" rx="7.7" ry="16.0" fill="#95784f" transform="rotate(30 240.1 700.0)" opacity=".9"/><ellipse cx="304.5" cy="820.0" rx="7.7" ry="16.0" fill="#95784f" transform="rotate(55 304.5 820.0)" opacity=".9"/><ellipse cx="325.5" cy="940.0" rx="7.7" ry="16.0" fill="#95784f" transform="rotate(4 325.5 940.0)" opacity=".9"/><g transform="translate(304.9,100.0) rotate(17)" opacity="1"><ellipse cx="0" cy="-15.0" rx="9.2" ry="15.0" fill="#b29e80" stroke="#857660" stroke-width="1.2" transform="rotate(0)"/><line x1="0" y1="-4.8" x2="0" y2="-25.3" stroke="#8e7e66" stroke-width="0.7" transform="rotate(0)" opacity=".6"/><ellipse cx="0" cy="-15.0" rx="9.2" ry="15.0" fill="#b29e80" stroke="#857660" stroke-width="1.2" transform="rotate(72)"/><line x1="0" y1="-4.8" x2="0" y2="-25.3" stroke="#8e7e66" stroke-width="0.7" transform="rotate(72)" opacity=".6"/><ellipse cx="0" cy="-15.0" rx="9.2" ry="15.0" fill="#b29e80" stroke="#857660" stroke-width="1.2" transform="rotate(144)"/><line x1="0" y1="-4.8" x2="0" y2="-25.3" stroke="#8e7e66" stroke-width="0.7" transform="rotate(144)" opacity=".6"/><ellipse cx="0" cy="-15.0" rx="9.2" ry="15.0" fill="#b29e80" stroke="#857660" stroke-width="1.2" transform="rotate(216)"/><line x1="0" y1="-4.8" x2="0" y2="-25.3" stroke="#8e7e66" stroke-width="0.7" transform="rotate(216)" opacity=".6"/><ellipse cx="0" cy="-15.0" rx="9.2" ry="15.0" fill="#b29e80" stroke="#857660" stroke-width="1.2" transform="rotate(288)"/><line x1="0" y1="-4.8" x2="0" y2="-25.3" stroke="#8e7e66" stroke-width="0.7" transform="rotate(288)" opacity=".6"/><circle r="6.8" fill="#755a33" stroke="#513e23" stroke-width="1.2"/><circle cx="3.6" cy="0.0" r="1.0" fill="#4c3a21"/><circle cx="2.6" cy="2.6" r="1.0" fill="#4c3a21"/><circle cx="0.0" cy="3.6" r="1.0" fill="#4c3a21"/><circle cx="-2.6" cy="2.6" r="1.0" fill="#4c3a21"/><circle cx="-3.6" cy="0.0" r="1.0" fill="#4c3a21"/><circle cx="-2.6" cy="-2.6" r="1.0" fill="#4c3a21"/><circle cx="-0.0" cy="-3.6" r="1.0" fill="#4c3a21"/><circle cx="2.6" cy="-2.6" r="1.0" fill="#4c3a21"/></g><g transform="translate(248.6,340.0) rotate(43)" opacity="1"><ellipse cx="0" cy="-10.4" rx="6.4" ry="10.4" fill="#b29e80" stroke="#857660" stroke-width="0.8" transform="rotate(0)"/><line x1="0" y1="-3.3" x2="0" y2="-17.6" stroke="#8e7e66" stroke-width="0.5" transform="rotate(0)" opacity=".6"/><ellipse cx="0" cy="-10.4" rx="6.4" ry="10.4" fill="#b29e80" stroke="#857660" stroke-width="0.8" transform="rotate(72)"/><line x1="0" y1="-3.3" x2="0" y2="-17.6" stroke="#8e7e66" stroke-width="0.5" transform="rotate(72)" opacity=".6"/><ellipse cx="0" cy="-10.4" rx="6.4" ry="10.4" fill="#b29e80" stroke="#857660" stroke-width="0.8" transform="rotate(144)"/><line x1="0" y1="-3.3" x2="0" y2="-17.6" stroke="#8e7e66" stroke-width="0.5" transform="rotate(144)" opacity=".6"/><ellipse cx="0" cy="-10.4" rx="6.4" ry="10.4" fill="#b29e80" stroke="#857660" stroke-width="0.8" transform="rotate(216)"/><line x1="0" y1="-3.3" x2="0" y2="-17.6" stroke="#8e7e66" stroke-width="0.5" transform="rotate(216)" opacity=".6"/><ellipse cx="0" cy="-10.4" rx="6.4" ry="10.4" fill="#b29e80" stroke="#857660" stroke-width="0.8" transform="rotate(288)"/><line x1="0" y1="-3.3" x2="0" y2="-17.6" stroke="#8e7e66" stroke-width="0.5" transform="rotate(288)" opacity=".6"/><circle r="4.7" fill="#755a33" stroke="#513e23" stroke-width="0.8"/><circle cx="2.5" cy="0.0" r="0.7" fill="#4c3a21"/><circle cx="1.8" cy="1.8" r="0.7" fill="#4c3a21"/><circle cx="0.0" cy="2.5" r="0.7" fill="#4c3a21"/><circle cx="-1.8" cy="1.8" r="0.7" fill="#4c3a21"/><circle cx="-2.5" cy="0.0" r="0.7" fill="#4c3a21"/><circle cx="-1.8" cy="-1.8" r="0.7" fill="#4c3a21"/><circle cx="-0.0" cy="-2.5" r="0.7" fill="#4c3a21"/><circle cx="1.8" cy="-1.8" r="0.7" fill="#4c3a21"/></g><g transform="translate(179.5,580.0) rotate(44)" opacity="1"><ellipse cx="0" cy="-14.4" rx="8.8" ry="14.4" fill="#b29e80" stroke="#857660" stroke-width="1.2" transform="rotate(0)"/><line x1="0" y1="-4.6" x2="0" y2="-24.3" stroke="#8e7e66" stroke-width="0.7" transform="rotate(0)" opacity=".6"/><ellipse cx="0" cy="-14.4" rx="8.8" ry="14.4" fill="#b29e80" stroke="#857660" stroke-width="1.2" transform="rotate(72)"/><line x1="0" y1="-4.6" x2="0" y2="-24.3" stroke="#8e7e66" stroke-width="0.7" transform="rotate(72)" opacity=".6"/><ellipse cx="0" cy="-14.4" rx="8.8" ry="14.4" fill="#b29e80" stroke="#857660" stroke-width="1.2" transform="rotate(144)"/><line x1="0" y1="-4.6" x2="0" y2="-24.3" stroke="#8e7e66" stroke-width="0.7" transform="rotate(144)" opacity=".6"/><ellipse cx="0" cy="-14.4" rx="8.8" ry="14.4" fill="#b29e80" stroke="#857660" stroke-width="1.2" transform="rotate(216)"/><line x1="0" y1="-4.6" x2="0" y2="-24.3" stroke="#8e7e66" stroke-width="0.7" transform="rotate(216)" opacity=".6"/><ellipse cx="0" cy="-14.4" rx="8.8" ry="14.4" fill="#b29e80" stroke="#857660" stroke-width="1.2" transform="rotate(288)"/><line x1="0" y1="-4.6" x2="0" y2="-24.3" stroke="#8e7e66" stroke-width="0.7" transform="rotate(288)" opacity=".6"/><circle r="6.5" fill="#755a33" stroke="#513e23" stroke-width="1.2"/><circle cx="3.5" cy="0.0" r="0.9" fill="#4c3a21"/><circle cx="2.5" cy="2.5" r="0.9" fill="#4c3a21"/><circle cx="0.0" cy="3.5" r="0.9" fill="#4c3a21"/><circle cx="-2.5" cy="2.5" r="0.9" fill="#4c3a21"/><circle cx="-3.5" cy="0.0" r="0.9" fill="#4c3a21"/><circle cx="-2.5" cy="-2.5" r="0.9" fill="#4c3a21"/><circle cx="-0.0" cy="-3.5" r="0.9" fill="#4c3a21"/><circle cx="2.5" cy="-2.5" r="0.9" fill="#4c3a21"/></g><g transform="translate(304.5,820.0) rotate(37)" opacity="1"><ellipse cx="0" cy="-13.3" rx="8.2" ry="13.3" fill="#b29e80" stroke="#857660" stroke-width="1.1" transform="rotate(0)"/><line x1="0" y1="-4.3" x2="0" y2="-22.5" stroke="#8e7e66" stroke-width="0.6" transform="rotate(0)" opacity=".6"/><ellipse cx="0" cy="-13.3" rx="8.2" ry="13.3" fill="#b29e80" stroke="#857660" stroke-width="1.1" transform="rotate(72)"/><line x1="0" y1="-4.3" x2="0" y2="-22.5" stroke="#8e7e66" stroke-width="0.6" transform="rotate(72)" opacity=".6"/><ellipse cx="0" cy="-13.3" rx="8.2" ry="13.3" fill="#b29e80" stroke="#857660" stroke-width="1.1" transform="rotate(144)"/><line x1="0" y1="-4.3" x2="0" y2="-22.5" stroke="#8e7e66" stroke-width="0.6" transform="rotate(144)" opacity=".6"/><ellipse cx="0" cy="-13.3" rx="8.2" ry="13.3" fill="#b29e80" stroke="#857660" stroke-width="1.1" transform="rotate(216)"/><line x1="0" y1="-4.3" x2="0" y2="-22.5" stroke="#8e7e66" stroke-width="0.6" transform="rotate(216)" opacity=".6"/><ellipse cx="0" cy="-13.3" rx="8.2" ry="13.3" fill="#b29e80" stroke="#857660" stroke-width="1.1" transform="rotate(288)"/><line x1="0" y1="-4.3" x2="0" y2="-22.5" stroke="#8e7e66" stroke-width="0.6" transform="rotate(288)" opacity=".6"/><circle r="6.0" fill="#755a33" stroke="#513e23" stroke-width="1.1"/><circle cx="3.2" cy="0.0" r="0.9" fill="#4c3a21"/><circle cx="2.3" cy="2.3" r="0.9" fill="#4c3a21"/><circle cx="0.0" cy="3.2" r="0.9" fill="#4c3a21"/><circle cx="-2.3" cy="2.3" r="0.9" fill="#4c3a21"/><circle cx="-3.2" cy="0.0" r="0.9" fill="#4c3a21"/><circle cx="-2.3" cy="-2.3" r="0.9" fill="#4c3a21"/><circle cx="-0.0" cy="-3.2" r="0.9" fill="#4c3a21"/><circle cx="2.3" cy="-2.3" r="0.9" fill="#4c3a21"/></g><path d="M406.6,-20.0 Q444.7,26.8 478.4,100.0 Q489.1,151.6 476.5,220.0 Q456.3,278.7 437.0,340.0 Q399.3,402.2 384.4,460.0 Q379.8,528.8 370.2,580.0 Q387.3,634.6 398.2,700.0 Q428.2,772.9 454.5,820.0 Q472.5,889.6 482.9,940.0 " fill="none" stroke="#8a6a3c" stroke-width="3.2" stroke-linecap="round"/><ellipse cx="478.4" cy="100.0" rx="7.7" ry="16.0" fill="#95784f" transform="rotate(4 478.4 100.0)" opacity=".9"/><ellipse cx="476.5" cy="220.0" rx="7.7" ry="16.0" fill="#95784f" transform="rotate(248 476.5 220.0)" opacity=".9"/><ellipse cx="437.0" cy="340.0" rx="7.7" ry="16.0" fill="#95784f" transform="rotate(76 437.0 340.0)" opacity=".9"/><ellipse cx="384.4" cy="460.0" rx="7.7" ry="16.0" fill="#95784f" transform="rotate(59 384.4 460.0)" opacity=".9"/><ellipse cx="370.2" cy="580.0" rx="7.7" ry="16.0" fill="#95784f" transform="rotate(119 370.2 580.0)" opacity=".9"/><ellipse cx="398.2" cy="700.0" rx="7.7" ry="16.0" fill="#95784f" transform="rotate(64 398.2 700.0)" opacity=".9"/><ellipse cx="454.5" cy="820.0" rx="7.7" ry="16.0" fill="#95784f" transform="rotate(31 454.5 820.0)" opacity=".9"/><ellipse cx="482.9" cy="940.0" rx="7.7" ry="16.0" fill="#95784f" transform="rotate(76 482.9 940.0)" opacity=".9"/><g transform="translate(478.4,100.0) rotate(17)" opacity="1"><ellipse cx="0" cy="-11.3" rx="7.0" ry="11.3" fill="#b29e80" stroke="#857660" stroke-width="0.9" transform="rotate(0)"/><line x1="0" y1="-3.7" x2="0" y2="-19.2" stroke="#8e7e66" stroke-width="0.5" transform="rotate(0)" opacity=".6"/><ellipse cx="0" cy="-11.3" rx="7.0" ry="11.3" fill="#b29e80" stroke="#857660" stroke-width="0.9" transform="rotate(72)"/><line x1="0" y1="-3.7" x2="0" y2="-19.2" stroke="#8e7e66" stroke-width="0.5" transform="rotate(72)" opacity=".6"/><ellipse cx="0" cy="-11.3" rx="7.0" ry="11.3" fill="#b29e80" stroke="#857660" stroke-width="0.9" transform="rotate(144)"/><line x1="0" y1="-3.7" x2="0" y2="-19.2" stroke="#8e7e66" stroke-width="0.5" transform="rotate(144)" opacity=".6"/><ellipse cx="0" cy="-11.3" rx="7.0" ry="11.3" fill="#b29e80" stroke="#857660" stroke-width="0.9" transform="rotate(216)"/><line x1="0" y1="-3.7" x2="0" y2="-19.2" stroke="#8e7e66" stroke-width="0.5" transform="rotate(216)" opacity=".6"/><ellipse cx="0" cy="-11.3" rx="7.0" ry="11.3" fill="#b29e80" stroke="#857660" stroke-width="0.9" transform="rotate(288)"/><line x1="0" y1="-3.7" x2="0" y2="-19.2" stroke="#8e7e66" stroke-width="0.5" transform="rotate(288)" opacity=".6"/><circle r="5.1" fill="#755a33" stroke="#513e23" stroke-width="0.9"/><circle cx="2.7" cy="0.0" r="0.7" fill="#4c3a21"/><circle cx="1.9" cy="1.9" r="0.7" fill="#4c3a21"/><circle cx="0.0" cy="2.7" r="0.7" fill="#4c3a21"/><circle cx="-1.9" cy="1.9" r="0.7" fill="#4c3a21"/><circle cx="-2.7" cy="0.0" r="0.7" fill="#4c3a21"/><circle cx="-1.9" cy="-1.9" r="0.7" fill="#4c3a21"/><circle cx="-0.0" cy="-2.7" r="0.7" fill="#4c3a21"/><circle cx="1.9" cy="-1.9" r="0.7" fill="#4c3a21"/></g><g transform="translate(437.0,340.0) rotate(6)" opacity="1"><ellipse cx="0" cy="-14.9" rx="9.1" ry="14.9" fill="#b29e80" stroke="#857660" stroke-width="1.2" transform="rotate(0)"/><line x1="0" y1="-4.8" x2="0" y2="-25.2" stroke="#8e7e66" stroke-width="0.7" transform="rotate(0)" opacity=".6"/><ellipse cx="0" cy="-14.9" rx="9.1" ry="14.9" fill="#b29e80" stroke="#857660" stroke-width="1.2" transform="rotate(72)"/><line x1="0" y1="-4.8" x2="0" y2="-25.2" stroke="#8e7e66" stroke-width="0.7" transform="rotate(72)" opacity=".6"/><ellipse cx="0" cy="-14.9" rx="9.1" ry="14.9" fill="#b29e80" stroke="#857660" stroke-width="1.2" transform="rotate(144)"/><line x1="0" y1="-4.8" x2="0" y2="-25.2" stroke="#8e7e66" stroke-width="0.7" transform="rotate(144)" opacity=".6"/><ellipse cx="0" cy="-14.9" rx="9.1" ry="14.9" fill="#b29e80" stroke="#857660" stroke-width="1.2" transform="rotate(216)"/><line x1="0" y1="-4.8" x2="0" y2="-25.2" stroke="#8e7e66" stroke-width="0.7" transform="rotate(216)" opacity=".6"/><ellipse cx="0" cy="-14.9" rx="9.1" ry="14.9" fill="#b29e80" stroke="#857660" stroke-width="1.2" transform="rotate(288)"/><line x1="0" y1="-4.8" x2="0" y2="-25.2" stroke="#8e7e66" stroke-width="0.7" transform="rotate(288)" opacity=".6"/><circle r="6.7" fill="#755a33" stroke="#513e23" stroke-width="1.2"/><circle cx="3.6" cy="0.0" r="1.0" fill="#4c3a21"/><circle cx="2.5" cy="2.5" r="1.0" fill="#4c3a21"/><circle cx="0.0" cy="3.6" r="1.0" fill="#4c3a21"/><circle cx="-2.5" cy="2.5" r="1.0" fill="#4c3a21"/><circle cx="-3.6" cy="0.0" r="1.0" fill="#4c3a21"/><circle cx="-2.5" cy="-2.5" r="1.0" fill="#4c3a21"/><circle cx="-0.0" cy="-3.6" r="1.0" fill="#4c3a21"/><circle cx="2.5" cy="-2.5" r="1.0" fill="#4c3a21"/></g><g transform="translate(370.2,580.0) rotate(4)" opacity="1"><ellipse cx="0" cy="-11.2" rx="6.8" ry="11.2" fill="#b29e80" stroke="#857660" stroke-width="0.9" transform="rotate(0)"/><line x1="0" y1="-3.6" x2="0" y2="-18.9" stroke="#8e7e66" stroke-width="0.5" transform="rotate(0)" opacity=".6"/><ellipse cx="0" cy="-11.2" rx="6.8" ry="11.2" fill="#b29e80" stroke="#857660" stroke-width="0.9" transform="rotate(72)"/><line x1="0" y1="-3.6" x2="0" y2="-18.9" stroke="#8e7e66" stroke-width="0.5" transform="rotate(72)" opacity=".6"/><ellipse cx="0" cy="-11.2" rx="6.8" ry="11.2" fill="#b29e80" stroke="#857660" stroke-width="0.9" transform="rotate(144)"/><line x1="0" y1="-3.6" x2="0" y2="-18.9" stroke="#8e7e66" stroke-width="0.5" transform="rotate(144)" opacity=".6"/><ellipse cx="0" cy="-11.2" rx="6.8" ry="11.2" fill="#b29e80" stroke="#857660" stroke-width="0.9" transform="rotate(216)"/><line x1="0" y1="-3.6" x2="0" y2="-18.9" stroke="#8e7e66" stroke-width="0.5" transform="rotate(216)" opacity=".6"/><ellipse cx="0" cy="-11.2" rx="6.8" ry="11.2" fill="#b29e80" stroke="#857660" stroke-width="0.9" transform="rotate(288)"/><line x1="0" y1="-3.6" x2="0" y2="-18.9" stroke="#8e7e66" stroke-width="0.5" transform="rotate(288)" opacity=".6"/><circle r="5.0" fill="#755a33" stroke="#513e23" stroke-width="0.9"/><circle cx="2.7" cy="0.0" r="0.7" fill="#4c3a21"/><circle cx="1.9" cy="1.9" r="0.7" fill="#4c3a21"/><circle cx="0.0" cy="2.7" r="0.7" fill="#4c3a21"/><circle cx="-1.9" cy="1.9" r="0.7" fill="#4c3a21"/><circle cx="-2.7" cy="0.0" r="0.7" fill="#4c3a21"/><circle cx="-1.9" cy="-1.9" r="0.7" fill="#4c3a21"/><circle cx="-0.0" cy="-2.7" r="0.7" fill="#4c3a21"/><circle cx="1.9" cy="-1.9" r="0.7" fill="#4c3a21"/></g><g transform="translate(454.5,820.0) rotate(16)" opacity="1"><ellipse cx="0" cy="-13.1" rx="8.0" ry="13.1" fill="#b29e80" stroke="#857660" stroke-width="1.1" transform="rotate(0)"/><line x1="0" y1="-4.2" x2="0" y2="-22.1" stroke="#8e7e66" stroke-width="0.6" transform="rotate(0)" opacity=".6"/><ellipse cx="0" cy="-13.1" rx="8.0" ry="13.1" fill="#b29e80" stroke="#857660" stroke-width="1.1" transform="rotate(72)"/><line x1="0" y1="-4.2" x2="0" y2="-22.1" stroke="#8e7e66" stroke-width="0.6" transform="rotate(72)" opacity=".6"/><ellipse cx="0" cy="-13.1" rx="8.0" ry="13.1" fill="#b29e80" stroke="#857660" stroke-width="1.1" transform="rotate(144)"/><line x1="0" y1="-4.2" x2="0" y2="-22.1" stroke="#8e7e66" stroke-width="0.6" transform="rotate(144)" opacity=".6"/><ellipse cx="0" cy="-13.1" rx="8.0" ry="13.1" fill="#b29e80" stroke="#857660" stroke-width="1.1" transform="rotate(216)"/><line x1="0" y1="-4.2" x2="0" y2="-22.1" stroke="#8e7e66" stroke-width="0.6" transform="rotate(216)" opacity=".6"/><ellipse cx="0" cy="-13.1" rx="8.0" ry="13.1" fill="#b29e80" stroke="#857660" stroke-width="1.1" transform="rotate(288)"/><line x1="0" y1="-4.2" x2="0" y2="-22.1" stroke="#8e7e66" stroke-width="0.6" transform="rotate(288)" opacity=".6"/><circle r="5.9" fill="#755a33" stroke="#513e23" stroke-width="1.1"/><circle cx="3.2" cy="0.0" r="0.8" fill="#4c3a21"/><circle cx="2.2" cy="2.2" r="0.8" fill="#4c3a21"/><circle cx="0.0" cy="3.2" r="0.8" fill="#4c3a21"/><circle cx="-2.2" cy="2.2" r="0.8" fill="#4c3a21"/><circle cx="-3.2" cy="0.0" r="0.8" fill="#4c3a21"/><circle cx="-2.2" cy="-2.2" r="0.8" fill="#4c3a21"/><circle cx="-0.0" cy="-3.2" r="0.8" fill="#4c3a21"/><circle cx="2.2" cy="-2.2" r="0.8" fill="#4c3a21"/></g><path d="M305.5,-20.0 Q329.8,37.0 354.4,100.0 Q354.3,156.7 370.1,220.0 Q346.4,283.2 307.3,340.0 Q290.4,411.2 286.0,460.0 Q263.2,516.0 261.0,580.0 Q285.7,651.6 295.1,700.0 Q325.1,746.3 357.4,820.0 Q377.0,878.0 393.3,940.0 " fill="none" stroke="#8a6a3c" stroke-width="3.2" stroke-linecap="round"/><ellipse cx="354.4" cy="100.0" rx="7.7" ry="16.0" fill="#95784f" transform="rotate(11 354.4 100.0)" opacity=".9"/><ellipse cx="370.1" cy="220.0" rx="7.7" ry="16.0" fill="#95784f" transform="rotate(126 370.1 220.0)" opacity=".9"/><ellipse cx="307.3" cy="340.0" rx="7.7" ry="16.0" fill="#95784f" transform="rotate(318 307.3 340.0)" opacity=".9"/><ellipse cx="286.0" cy="460.0" rx="7.7" ry="16.0" fill="#95784f" transform="rotate(13 286.0 460.0)" opacity=".9"/><ellipse cx="261.0" cy="580.0" rx="7.7" ry="16.0" fill="#95784f" transform="rotate(64 261.0 580.0)" opacity=".9"/><ellipse cx="295.1" cy="700.0" rx="7.7" ry="16.0" fill="#95784f" transform="rotate(60 295.1 700.0)" opacity=".9"/><ellipse cx="357.4" cy="820.0" rx="7.7" ry="16.0" fill="#95784f" transform="rotate(287 357.4 820.0)" opacity=".9"/><ellipse cx="393.3" cy="940.0" rx="7.7" ry="16.0" fill="#95784f" transform="rotate(111 393.3 940.0)" opacity=".9"/><g transform="translate(354.4,100.0) rotate(47)" opacity="1"><ellipse cx="0" cy="-14.2" rx="8.7" ry="14.2" fill="#b29e80" stroke="#857660" stroke-width="1.1" transform="rotate(0)"/><line x1="0" y1="-4.6" x2="0" y2="-24.0" stroke="#8e7e66" stroke-width="0.7" transform="rotate(0)" opacity=".6"/><ellipse cx="0" cy="-14.2" rx="8.7" ry="14.2" fill="#b29e80" stroke="#857660" stroke-width="1.1" transform="rotate(72)"/><line x1="0" y1="-4.6" x2="0" y2="-24.0" stroke="#8e7e66" stroke-width="0.7" transform="rotate(72)" opacity=".6"/><ellipse cx="0" cy="-14.2" rx="8.7" ry="14.2" fill="#b29e80" stroke="#857660" stroke-width="1.1" transform="rotate(144)"/><line x1="0" y1="-4.6" x2="0" y2="-24.0" stroke="#8e7e66" stroke-width="0.7" transform="rotate(144)" opacity=".6"/><ellipse cx="0" cy="-14.2" rx="8.7" ry="14.2" fill="#b29e80" stroke="#857660" stroke-width="1.1" transform="rotate(216)"/><line x1="0" y1="-4.6" x2="0" y2="-24.0" stroke="#8e7e66" stroke-width="0.7" transform="rotate(216)" opacity=".6"/><ellipse cx="0" cy="-14.2" rx="8.7" ry="14.2" fill="#b29e80" stroke="#857660" stroke-width="1.1" transform="rotate(288)"/><line x1="0" y1="-4.6" x2="0" y2="-24.0" stroke="#8e7e66" stroke-width="0.7" transform="rotate(288)" opacity=".6"/><circle r="6.4" fill="#755a33" stroke="#513e23" stroke-width="1.1"/><circle cx="3.4" cy="0.0" r="0.9" fill="#4c3a21"/><circle cx="2.4" cy="2.4" r="0.9" fill="#4c3a21"/><circle cx="0.0" cy="3.4" r="0.9" fill="#4c3a21"/><circle cx="-2.4" cy="2.4" r="0.9" fill="#4c3a21"/><circle cx="-3.4" cy="0.0" r="0.9" fill="#4c3a21"/><circle cx="-2.4" cy="-2.4" r="0.9" fill="#4c3a21"/><circle cx="-0.0" cy="-3.4" r="0.9" fill="#4c3a21"/><circle cx="2.4" cy="-2.4" r="0.9" fill="#4c3a21"/></g><g transform="translate(307.3,340.0) rotate(31)" opacity="1"><ellipse cx="0" cy="-10.0" rx="6.1" ry="10.0" fill="#b29e80" stroke="#857660" stroke-width="0.8" transform="rotate(0)"/><line x1="0" y1="-3.2" x2="0" y2="-16.9" stroke="#8e7e66" stroke-width="0.5" transform="rotate(0)" opacity=".6"/><ellipse cx="0" cy="-10.0" rx="6.1" ry="10.0" fill="#b29e80" stroke="#857660" stroke-width="0.8" transform="rotate(72)"/><line x1="0" y1="-3.2" x2="0" y2="-16.9" stroke="#8e7e66" stroke-width="0.5" transform="rotate(72)" opacity=".6"/><ellipse cx="0" cy="-10.0" rx="6.1" ry="10.0" fill="#b29e80" stroke="#857660" stroke-width="0.8" transform="rotate(144)"/><line x1="0" y1="-3.2" x2="0" y2="-16.9" stroke="#8e7e66" stroke-width="0.5" transform="rotate(144)" opacity=".6"/><ellipse cx="0" cy="-10.0" rx="6.1" ry="10.0" fill="#b29e80" stroke="#857660" stroke-width="0.8" transform="rotate(216)"/><line x1="0" y1="-3.2" x2="0" y2="-16.9" stroke="#8e7e66" stroke-width="0.5" transform="rotate(216)" opacity=".6"/><ellipse cx="0" cy="-10.0" rx="6.1" ry="10.0" fill="#b29e80" stroke="#857660" stroke-width="0.8" transform="rotate(288)"/><line x1="0" y1="-3.2" x2="0" y2="-16.9" stroke="#8e7e66" stroke-width="0.5" transform="rotate(288)" opacity=".6"/><circle r="4.5" fill="#755a33" stroke="#513e23" stroke-width="0.8"/><circle cx="2.4" cy="0.0" r="0.6" fill="#4c3a21"/><circle cx="1.7" cy="1.7" r="0.6" fill="#4c3a21"/><circle cx="0.0" cy="2.4" r="0.6" fill="#4c3a21"/><circle cx="-1.7" cy="1.7" r="0.6" fill="#4c3a21"/><circle cx="-2.4" cy="0.0" r="0.6" fill="#4c3a21"/><circle cx="-1.7" cy="-1.7" r="0.6" fill="#4c3a21"/><circle cx="-0.0" cy="-2.4" r="0.6" fill="#4c3a21"/><circle cx="1.7" cy="-1.7" r="0.6" fill="#4c3a21"/></g><g transform="translate(261.0,580.0) rotate(56)" opacity="1"><ellipse cx="0" cy="-10.7" rx="6.5" ry="10.7" fill="#b29e80" stroke="#857660" stroke-width="0.9" transform="rotate(0)"/><line x1="0" y1="-3.4" x2="0" y2="-18.1" stroke="#8e7e66" stroke-width="0.5" transform="rotate(0)" opacity=".6"/><ellipse cx="0" cy="-10.7" rx="6.5" ry="10.7" fill="#b29e80" stroke="#857660" stroke-width="0.9" transform="rotate(72)"/><line x1="0" y1="-3.4" x2="0" y2="-18.1" stroke="#8e7e66" stroke-width="0.5" transform="rotate(72)" opacity=".6"/><ellipse cx="0" cy="-10.7" rx="6.5" ry="10.7" fill="#b29e80" stroke="#857660" stroke-width="0.9" transform="rotate(144)"/><line x1="0" y1="-3.4" x2="0" y2="-18.1" stroke="#8e7e66" stroke-width="0.5" transform="rotate(144)" opacity=".6"/><ellipse cx="0" cy="-10.7" rx="6.5" ry="10.7" fill="#b29e80" stroke="#857660" stroke-width="0.9" transform="rotate(216)"/><line x1="0" y1="-3.4" x2="0" y2="-18.1" stroke="#8e7e66" stroke-width="0.5" transform="rotate(216)" opacity=".6"/><ellipse cx="0" cy="-10.7" rx="6.5" ry="10.7" fill="#b29e80" stroke="#857660" stroke-width="0.9" transform="rotate(288)"/><line x1="0" y1="-3.4" x2="0" y2="-18.1" stroke="#8e7e66" stroke-width="0.5" transform="rotate(288)" opacity=".6"/><circle r="4.8" fill="#755a33" stroke="#513e23" stroke-width="0.9"/><circle cx="2.6" cy="0.0" r="0.7" fill="#4c3a21"/><circle cx="1.8" cy="1.8" r="0.7" fill="#4c3a21"/><circle cx="0.0" cy="2.6" r="0.7" fill="#4c3a21"/><circle cx="-1.8" cy="1.8" r="0.7" fill="#4c3a21"/><circle cx="-2.6" cy="0.0" r="0.7" fill="#4c3a21"/><circle cx="-1.8" cy="-1.8" r="0.7" fill="#4c3a21"/><circle cx="-0.0" cy="-2.6" r="0.7" fill="#4c3a21"/><circle cx="1.8" cy="-1.8" r="0.7" fill="#4c3a21"/></g><g transform="translate(357.4,820.0) rotate(26)" opacity="1"><ellipse cx="0" cy="-13.0" rx="7.9" ry="13.0" fill="#b29e80" stroke="#857660" stroke-width="1.0" transform="rotate(0)"/><line x1="0" y1="-4.2" x2="0" y2="-21.9" stroke="#8e7e66" stroke-width="0.6" transform="rotate(0)" opacity=".6"/><ellipse cx="0" cy="-13.0" rx="7.9" ry="13.0" fill="#b29e80" stroke="#857660" stroke-width="1.0" transform="rotate(72)"/><line x1="0" y1="-4.2" x2="0" y2="-21.9" stroke="#8e7e66" stroke-width="0.6" transform="rotate(72)" opacity=".6"/><ellipse cx="0" cy="-13.0" rx="7.9" ry="13.0" fill="#b29e80" stroke="#857660" stroke-width="1.0" transform="rotate(144)"/><line x1="0" y1="-4.2" x2="0" y2="-21.9" stroke="#8e7e66" stroke-width="0.6" transform="rotate(144)" opacity=".6"/><ellipse cx="0" cy="-13.0" rx="7.9" ry="13.0" fill="#b29e80" stroke="#857660" stroke-width="1.0" transform="rotate(216)"/><line x1="0" y1="-4.2" x2="0" y2="-21.9" stroke="#8e7e66" stroke-width="0.6" transform="rotate(216)" opacity=".6"/><ellipse cx="0" cy="-13.0" rx="7.9" ry="13.0" fill="#b29e80" stroke="#857660" stroke-width="1.0" transform="rotate(288)"/><line x1="0" y1="-4.2" x2="0" y2="-21.9" stroke="#8e7e66" stroke-width="0.6" transform="rotate(288)" opacity=".6"/><circle r="5.9" fill="#755a33" stroke="#513e23" stroke-width="1.0"/><circle cx="3.1" cy="0.0" r="0.8" fill="#4c3a21"/><circle cx="2.2" cy="2.2" r="0.8" fill="#4c3a21"/><circle cx="0.0" cy="3.1" r="0.8" fill="#4c3a21"/><circle cx="-2.2" cy="2.2" r="0.8" fill="#4c3a21"/><circle cx="-3.1" cy="0.0" r="0.8" fill="#4c3a21"/><circle cx="-2.2" cy="-2.2" r="0.8" fill="#4c3a21"/><circle cx="-0.0" cy="-3.1" r="0.8" fill="#4c3a21"/><circle cx="2.2" cy="-2.2" r="0.8" fill="#4c3a21"/></g><path d="M475.4,-20.0 Q498.4,43.3 495.7,100.0 Q490.8,161.9 500.8,220.0 Q472.8,282.4 463.8,340.0 Q426.7,412.1 409.6,460.0 Q400.6,531.0 402.6,580.0 Q414.8,631.8 442.8,700.0 Q474.7,769.1 520.8,820.0 Q533.9,886.9 528.7,940.0 " fill="none" stroke="#8a6a3c" stroke-width="3.2" stroke-linecap="round"/><ellipse cx="495.7" cy="100.0" rx="7.7" ry="16.0" fill="#95784f" transform="rotate(207 495.7 100.0)" opacity=".9"/><ellipse cx="500.8" cy="220.0" rx="7.7" ry="16.0" fill="#95784f" transform="rotate(52 500.8 220.0)" opacity=".9"/><ellipse cx="463.8" cy="340.0" rx="7.7" ry="16.0" fill="#95784f" transform="rotate(86 463.8 340.0)" opacity=".9"/><ellipse cx="409.6" cy="460.0" rx="7.7" ry="16.0" fill="#95784f" transform="rotate(12 409.6 460.0)" opacity=".9"/><ellipse cx="402.6" cy="580.0" rx="7.7" ry="16.0" fill="#95784f" transform="rotate(335 402.6 580.0)" opacity=".9"/><ellipse cx="442.8" cy="700.0" rx="7.7" ry="16.0" fill="#95784f" transform="rotate(46 442.8 700.0)" opacity=".9"/><ellipse cx="520.8" cy="820.0" rx="7.7" ry="16.0" fill="#95784f" transform="rotate(258 520.8 820.0)" opacity=".9"/><ellipse cx="528.7" cy="940.0" rx="7.7" ry="16.0" fill="#95784f" transform="rotate(0 528.7 940.0)" opacity=".9"/><g transform="translate(495.7,100.0) rotate(42)" opacity="1"><ellipse cx="0" cy="-11.7" rx="7.2" ry="11.7" fill="#b29e80" stroke="#857660" stroke-width="0.9" transform="rotate(0)"/><line x1="0" y1="-3.8" x2="0" y2="-19.8" stroke="#8e7e66" stroke-width="0.6" transform="rotate(0)" opacity=".6"/><ellipse cx="0" cy="-11.7" rx="7.2" ry="11.7" fill="#b29e80" stroke="#857660" stroke-width="0.9" transform="rotate(72)"/><line x1="0" y1="-3.8" x2="0" y2="-19.8" stroke="#8e7e66" stroke-width="0.6" transform="rotate(72)" opacity=".6"/><ellipse cx="0" cy="-11.7" rx="7.2" ry="11.7" fill="#b29e80" stroke="#857660" stroke-width="0.9" transform="rotate(144)"/><line x1="0" y1="-3.8" x2="0" y2="-19.8" stroke="#8e7e66" stroke-width="0.6" transform="rotate(144)" opacity=".6"/><ellipse cx="0" cy="-11.7" rx="7.2" ry="11.7" fill="#b29e80" stroke="#857660" stroke-width="0.9" transform="rotate(216)"/><line x1="0" y1="-3.8" x2="0" y2="-19.8" stroke="#8e7e66" stroke-width="0.6" transform="rotate(216)" opacity=".6"/><ellipse cx="0" cy="-11.7" rx="7.2" ry="11.7" fill="#b29e80" stroke="#857660" stroke-width="0.9" transform="rotate(288)"/><line x1="0" y1="-3.8" x2="0" y2="-19.8" stroke="#8e7e66" stroke-width="0.6" transform="rotate(288)" opacity=".6"/><circle r="5.3" fill="#755a33" stroke="#513e23" stroke-width="0.9"/><circle cx="2.8" cy="0.0" r="0.8" fill="#4c3a21"/><circle cx="2.0" cy="2.0" r="0.8" fill="#4c3a21"/><circle cx="0.0" cy="2.8" r="0.8" fill="#4c3a21"/><circle cx="-2.0" cy="2.0" r="0.8" fill="#4c3a21"/><circle cx="-2.8" cy="0.0" r="0.8" fill="#4c3a21"/><circle cx="-2.0" cy="-2.0" r="0.8" fill="#4c3a21"/><circle cx="-0.0" cy="-2.8" r="0.8" fill="#4c3a21"/><circle cx="2.0" cy="-2.0" r="0.8" fill="#4c3a21"/></g><g transform="translate(463.8,340.0) rotate(5)" opacity="1"><ellipse cx="0" cy="-11.1" rx="6.8" ry="11.1" fill="#b29e80" stroke="#857660" stroke-width="0.9" transform="rotate(0)"/><line x1="0" y1="-3.6" x2="0" y2="-18.7" stroke="#8e7e66" stroke-width="0.5" transform="rotate(0)" opacity=".6"/><ellipse cx="0" cy="-11.1" rx="6.8" ry="11.1" fill="#b29e80" stroke="#857660" stroke-width="0.9" transform="rotate(72)"/><line x1="0" y1="-3.6" x2="0" y2="-18.7" stroke="#8e7e66" stroke-width="0.5" transform="rotate(72)" opacity=".6"/><ellipse cx="0" cy="-11.1" rx="6.8" ry="11.1" fill="#b29e80" stroke="#857660" stroke-width="0.9" transform="rotate(144)"/><line x1="0" y1="-3.6" x2="0" y2="-18.7" stroke="#8e7e66" stroke-width="0.5" transform="rotate(144)" opacity=".6"/><ellipse cx="0" cy="-11.1" rx="6.8" ry="11.1" fill="#b29e80" stroke="#857660" stroke-width="0.9" transform="rotate(216)"/><line x1="0" y1="-3.6" x2="0" y2="-18.7" stroke="#8e7e66" stroke-width="0.5" transform="rotate(216)" opacity=".6"/><ellipse cx="0" cy="-11.1" rx="6.8" ry="11.1" fill="#b29e80" stroke="#857660" stroke-width="0.9" transform="rotate(288)"/><line x1="0" y1="-3.6" x2="0" y2="-18.7" stroke="#8e7e66" stroke-width="0.5" transform="rotate(288)" opacity=".6"/><circle r="5.0" fill="#755a33" stroke="#513e23" stroke-width="0.9"/><circle cx="2.7" cy="0.0" r="0.7" fill="#4c3a21"/><circle cx="1.9" cy="1.9" r="0.7" fill="#4c3a21"/><circle cx="0.0" cy="2.7" r="0.7" fill="#4c3a21"/><circle cx="-1.9" cy="1.9" r="0.7" fill="#4c3a21"/><circle cx="-2.7" cy="0.0" r="0.7" fill="#4c3a21"/><circle cx="-1.9" cy="-1.9" r="0.7" fill="#4c3a21"/><circle cx="-0.0" cy="-2.7" r="0.7" fill="#4c3a21"/><circle cx="1.9" cy="-1.9" r="0.7" fill="#4c3a21"/></g><g transform="translate(402.6,580.0) rotate(20)" opacity="1"><ellipse cx="0" cy="-15.5" rx="9.5" ry="15.5" fill="#b29e80" stroke="#857660" stroke-width="1.2" transform="rotate(0)"/><line x1="0" y1="-5.0" x2="0" y2="-26.2" stroke="#8e7e66" stroke-width="0.7" transform="rotate(0)" opacity=".6"/><ellipse cx="0" cy="-15.5" rx="9.5" ry="15.5" fill="#b29e80" stroke="#857660" stroke-width="1.2" transform="rotate(72)"/><line x1="0" y1="-5.0" x2="0" y2="-26.2" stroke="#8e7e66" stroke-width="0.7" transform="rotate(72)" opacity=".6"/><ellipse cx="0" cy="-15.5" rx="9.5" ry="15.5" fill="#b29e80" stroke="#857660" stroke-width="1.2" transform="rotate(144)"/><line x1="0" y1="-5.0" x2="0" y2="-26.2" stroke="#8e7e66" stroke-width="0.7" transform="rotate(144)" opacity=".6"/><ellipse cx="0" cy="-15.5" rx="9.5" ry="15.5" fill="#b29e80" stroke="#857660" stroke-width="1.2" transform="rotate(216)"/><line x1="0" y1="-5.0" x2="0" y2="-26.2" stroke="#8e7e66" stroke-width="0.7" transform="rotate(216)" opacity=".6"/><ellipse cx="0" cy="-15.5" rx="9.5" ry="15.5" fill="#b29e80" stroke="#857660" stroke-width="1.2" transform="rotate(288)"/><line x1="0" y1="-5.0" x2="0" y2="-26.2" stroke="#8e7e66" stroke-width="0.7" transform="rotate(288)" opacity=".6"/><circle r="7.0" fill="#755a33" stroke="#513e23" stroke-width="1.2"/><circle cx="3.7" cy="0.0" r="1.0" fill="#4c3a21"/><circle cx="2.6" cy="2.6" r="1.0" fill="#4c3a21"/><circle cx="0.0" cy="3.7" r="1.0" fill="#4c3a21"/><circle cx="-2.6" cy="2.6" r="1.0" fill="#4c3a21"/><circle cx="-3.7" cy="0.0" r="1.0" fill="#4c3a21"/><circle cx="-2.6" cy="-2.6" r="1.0" fill="#4c3a21"/><circle cx="-0.0" cy="-3.7" r="1.0" fill="#4c3a21"/><circle cx="2.6" cy="-2.6" r="1.0" fill="#4c3a21"/></g><g transform="translate(520.8,820.0) rotate(49)" opacity="1"><ellipse cx="0" cy="-10.0" rx="6.1" ry="10.0" fill="#b29e80" stroke="#857660" stroke-width="0.8" transform="rotate(0)"/><line x1="0" y1="-3.2" x2="0" y2="-16.9" stroke="#8e7e66" stroke-width="0.5" transform="rotate(0)" opacity=".6"/><ellipse cx="0" cy="-10.0" rx="6.1" ry="10.0" fill="#b29e80" stroke="#857660" stroke-width="0.8" transform="rotate(72)"/><line x1="0" y1="-3.2" x2="0" y2="-16.9" stroke="#8e7e66" stroke-width="0.5" transform="rotate(72)" opacity=".6"/><ellipse cx="0" cy="-10.0" rx="6.1" ry="10.0" fill="#b29e80" stroke="#857660" stroke-width="0.8" transform="rotate(144)"/><line x1="0" y1="-3.2" x2="0" y2="-16.9" stroke="#8e7e66" stroke-width="0.5" transform="rotate(144)" opacity=".6"/><ellipse cx="0" cy="-10.0" rx="6.1" ry="10.0" fill="#b29e80" stroke="#857660" stroke-width="0.8" transform="rotate(216)"/><line x1="0" y1="-3.2" x2="0" y2="-16.9" stroke="#8e7e66" stroke-width="0.5" transform="rotate(216)" opacity=".6"/><ellipse cx="0" cy="-10.0" rx="6.1" ry="10.0" fill="#b29e80" stroke="#857660" stroke-width="0.8" transform="rotate(288)"/><line x1="0" y1="-3.2" x2="0" y2="-16.9" stroke="#8e7e66" stroke-width="0.5" transform="rotate(288)" opacity=".6"/><circle r="4.5" fill="#755a33" stroke="#513e23" stroke-width="0.8"/><circle cx="2.4" cy="0.0" r="0.6" fill="#4c3a21"/><circle cx="1.7" cy="1.7" r="0.6" fill="#4c3a21"/><circle cx="0.0" cy="2.4" r="0.6" fill="#4c3a21"/><circle cx="-1.7" cy="1.7" r="0.6" fill="#4c3a21"/><circle cx="-2.4" cy="0.0" r="0.6" fill="#4c3a21"/><circle cx="-1.7" cy="-1.7" r="0.6" fill="#4c3a21"/><circle cx="-0.0" cy="-2.4" r="0.6" fill="#4c3a21"/><circle cx="1.7" cy="-1.7" r="0.6" fill="#4c3a21"/></g><rect width="600" height="800" fill="url(#vigdetailthread)"/></svg>