<svg xmlns="http://www.w3.org/2000/svg" viewBox="0 0 600 800" width="600" height="800">
<defs><linearGradient id="bg15" x1="0" y1="0" x2="0" y2="1"><stop offset="0" stop-color="#2b2112"/><stop offset="1" stop-color="#120d06"/></linearGradient>
<radialGradient id="gl15" cx=".5" cy=".38" r=".55"><stop offset="0" stop-color="#fff" stop-opacity=".10"/><stop offset="1" stop-color="#fff" stop-opacity="0"/></radialGradient><linearGradient id="dgp15" x1="0" y1="0" x2="1" y2="1"><stop offset="0" stop-color="#c8a056"/><stop offset=".55" stop-color="#a48346"/><stop offset="1" stop-color="#786033"/></linearGradient></defs>
<rect width="600" height="800" fill="url(#bg15)"/><rect width="600" height="800" fill="url(#gl15)"/>
<path d="M 100.0 820 L 100.0 280.0 Q 100.0 108.0 300 60 Q 500.0 108.0 500.0 280.0 L 500.0 820" fill="none" stroke="#c9a24a" stroke-width="1.5" opacity="0.55"/><path d="M 120.0 840 L 120.0 278.0 Q 120.0 123.19999999999999 300 80 Q 480.0 123.19999999999999 480.0 278.0 L 480.0 840" fill="none" stroke="#c9a24a" stroke-width="0.8" opacity="0.35"/>
<circle cx="579" cy="9" r="2.8" fill="#e3c77a" opacity="0.14"/><circle cx="592" cy="14" r="3.2" fill="#e3c77a" opacity="0.27"/><circle cx="514" cy="800" r="1.6" fill="#e3c77a" opacity="0.18"/><circle cx="425" cy="224" r="1.7" fill="#e3c77a" opacity="0.16"/><circle cx="515" cy="700" r="3.0" fill="#e3c77a" opacity="0.16"/><circle cx="555" cy="409" r="1.6" fill="#e3c77a" opacity="0.21"/><circle cx="252" cy="63" r="2.4" fill="#e3c77a" opacity="0.19"/><circle cx="342" cy="744" r="2.6" fill="#e3c77a" opacity="0.20"/><circle cx="518" cy="796" r="2.2" fill="#e3c77a" opacity="0.34"/><circle cx="11" cy="112" r="1.4" fill="#e3c77a" opacity="0.33"/><circle cx="414" cy="575" r="1.7" fill="#e3c77a" opacity="0.22"/><circle cx="532" cy="80" r="1.3" fill="#e3c77a" opacity="0.11"/><circle cx="281" cy="672" r="2.4" fill="#e3c77a" opacity="0.20"/><circle cx="301" cy="143" r="3.4" fill="#e3c77a" opacity="0.19"/><circle cx="141" cy="249" r="3.1" fill="#e3c77a" opacity="0.18"/><circle cx="543" cy="269" r="2.1" fill="#e3c77a" opacity="0.12"/><circle cx="544" cy="637" r="2.2" fill="#e3c77a" opacity="0.13"/><circle cx="295" cy="301" r="3.1" fill="#e3c77a" opacity="0.33"/><circle cx="445" cy="230" r="1.1" fill="#e3c77a" opacity="0.32"/><circle cx="567" cy="127" r="2.2" fill="#e3c77a" opacity="0.22"/><circle cx="586" cy="34" r="1.2" fill="#e3c77a" opacity="0.31"/><circle cx="342" cy="370" r="2.9" fill="#e3c77a" opacity="0.25"/><circle cx="415" cy="205" r="1.2" fill="#e3c77a" opacity="0.10"/><circle cx="200" cy="519" r="1.9" fill="#e3c77a" opacity="0.19"/><circle cx="371" cy="564" r="2.5" fill="#e3c77a" opacity="0.18"/><circle cx="493" cy="641" r="3.2" fill="#e3c77a" opacity="0.32"/><circle cx="9" cy="535" r="1.9" fill="#e3c77a" opacity="0.20"/><circle cx="311" cy="115" r="1.6" fill="#e3c77a" opacity="0.35"/><circle cx="199" cy="730" r="2.7" fill="#e3c77a" opacity="0.18"/><circle cx="191" cy="484" r="2.8" fill="#e3c77a" opacity="0.19"/><circle cx="35" cy="138" r="3.2" fill="#e3c77a" opacity="0.28"/><circle cx="65" cy="668" r="2.4" fill="#e3c77a" opacity="0.18"/><circle cx="536" cy="103" r="1.2" fill="#e3c77a" opacity="0.19"/><circle cx="443" cy="438" r="2.2" fill="#e3c77a" opacity="0.33"/><circle cx="236" cy="631" r="1.0" fill="#e3c77a" opacity="0.30"/><circle cx="93" cy="525" r="3.1" fill="#e3c77a" opacity="0.26"/><circle cx="347" cy="440" r="2.9" fill="#e3c77a" opacity="0.19"/><circle cx="140" cy="446" r="2.3" fill="#e3c77a" opacity="0.13"/><circle cx="318" cy="374" r="1.4" fill="#e3c77a" opacity="0.28"/><circle cx="467" cy="271" r="3.2" fill="#e3c77a" opacity="0.35"/>
<ellipse cx="300" cy="768" rx="200" ry="14" fill="#000" opacity=".18"/>
<path d="M 270.6 140.0 Q 300.0 169.4 329.4 140.0 L 381.0 169.4 Q 410.4 241.2 430.6 359.0 L 395.7 368.2 L 357.0 243.0 L 347.8 307.4 Q 451.8 480.4 488.6 687.4 Q 300.0 704.0 111.4 687.4 Q 148.2 480.4 252.2 307.4 L 243.0 243.0 L 204.3 368.2 L 169.4 359.0 Q 189.6 241.2 219.0 169.4 Z" fill="url(#dgp15)"/><path d="M 265.0 141.8 Q 300.0 199.8 335.0 141.8" fill="none" stroke="#e3c77a" stroke-width="4.6" stroke-dasharray="1.8 5.5" stroke-linecap="round"/><path d="M 272.4 149.2 Q 300.0 215.4 327.6 149.2" fill="none" stroke="#c9a24a" stroke-width="1.8"/><circle cx="263.1" cy="207.3" r="2.9" fill="#e3c77a"/><circle cx="272.3" cy="217.9" r="2.9" fill="#e3c77a"/><circle cx="285.2" cy="225.0" r="2.9" fill="#e3c77a"/><circle cx="300.0" cy="227.4" r="2.9" fill="#e3c77a"/><circle cx="314.8" cy="225.0" r="2.9" fill="#e3c77a"/><circle cx="327.7" cy="217.9" r="2.9" fill="#e3c77a"/><circle cx="336.9" cy="207.3" r="2.9" fill="#e3c77a"/><path d="M 252.2 309.3 Q 300.0 324.0 347.8 309.3" fill="none" stroke="#c9a24a" stroke-width="6.4"/><path d="M 254.0 309.3 Q 300.0 324.0 346.0 309.3" fill="none" stroke="#e3c77a" stroke-width="1.8" stroke-dasharray="0.9 4.6" stroke-linecap="round"/><path d="M 171.2 353.4 L 206.2 362.6" stroke="#c9a24a" stroke-width="7.4"/><path d="M 393.8 362.6 L 428.8 353.4" stroke="#c9a24a" stroke-width="7.4"/><path d="M 116.9 672.7 Q 300.0 689.2 483.1 672.7" fill="none" stroke="#c9a24a" stroke-width="12.9"/><path d="M 116.9 652.4 Q 300.0 669.0 483.1 652.4" fill="none" stroke="#e3c77a" stroke-width="2.8"/><path d="M 116.9 635.9 Q 300.0 652.4 483.1 635.9" fill="none" stroke="#e3c77a" stroke-width="5.5" stroke-dasharray="1 9" stroke-linecap="round"/><circle cx="322.1" cy="481.8" r="2.3" fill="#e3c77a" opacity=".85"/><circle cx="319.3" cy="485.7" r="2.3" fill="#e3c77a" opacity=".85"/><circle cx="314.7" cy="484.2" r="2.3" fill="#e3c77a" opacity=".85"/><circle cx="314.7" cy="479.4" r="2.3" fill="#e3c77a" opacity=".85"/><circle cx="319.3" cy="477.9" r="2.3" fill="#e3c77a" opacity=".85"/><circle cx="318.0" cy="481.8" r="1.6" fill="#8c6a2a"/><circle cx="339.2" cy="521.0" r="2.8" fill="#e3c77a" opacity=".85"/><circle cx="335.7" cy="525.9" r="2.8" fill="#e3c77a" opacity=".85"/><circle cx="330.0" cy="524.0" r="2.8" fill="#e3c77a" opacity=".85"/><circle cx="330.0" cy="518.0" r="2.8" fill="#e3c77a" opacity=".85"/><circle cx="335.7" cy="516.1" r="2.8" fill="#e3c77a" opacity=".85"/><circle cx="334.1" cy="521.0" r="2.0" fill="#8c6a2a"/><circle cx="361.5" cy="532.6" r="2.1" fill="#e3c77a" opacity=".85"/><circle cx="358.9" cy="536.2" r="2.1" fill="#e3c77a" opacity=".85"/><circle cx="354.7" cy="534.9" r="2.1" fill="#e3c77a" opacity=".85"/><circle cx="354.7" cy="530.4" r="2.1" fill="#e3c77a" opacity=".85"/><circle cx="358.9" cy="529.1" r="2.1" fill="#e3c77a" opacity=".85"/><circle cx="357.7" cy="532.6" r="1.5" fill="#8c6a2a"/><circle cx="338.3" cy="495.7" r="2.1" fill="#e3c77a" opacity=".85"/><circle cx="335.7" cy="499.4" r="2.1" fill="#e3c77a" opacity=".85"/><circle cx="331.5" cy="498.0" r="2.1" fill="#e3c77a" opacity=".85"/><circle cx="331.5" cy="493.5" r="2.1" fill="#e3c77a" opacity=".85"/><circle cx="335.7" cy="492.1" r="2.1" fill="#e3c77a" opacity=".85"/><circle cx="334.5" cy="495.7" r="1.5" fill="#8c6a2a"/><circle cx="346.8" cy="525.9" r="2.5" fill="#e3c77a" opacity=".85"/><circle cx="343.6" cy="530.3" r="2.5" fill="#e3c77a" opacity=".85"/><circle cx="338.4" cy="528.6" r="2.5" fill="#e3c77a" opacity=".85"/><circle cx="338.4" cy="523.2" r="2.5" fill="#e3c77a" opacity=".85"/><circle cx="343.6" cy="521.5" r="2.5" fill="#e3c77a" opacity=".85"/><circle cx="342.2" cy="525.9" r="1.9" fill="#8c6a2a"/><circle cx="269.6" cy="410.7" r="2.5" fill="#e3c77a" opacity=".85"/><circle cx="266.5" cy="415.0" r="2.5" fill="#e3c77a" opacity=".85"/><circle cx="261.3" cy="413.4" r="2.5" fill="#e3c77a" opacity=".85"/><circle cx="261.3" cy="408.0" r="2.5" fill="#e3c77a" opacity=".85"/><circle cx="266.5" cy="406.3" r="2.5" fill="#e3c77a" opacity=".85"/><circle cx="265.1" cy="410.7" r="1.8" fill="#8c6a2a"/><circle cx="259.4" cy="377.9" r="2.1" fill="#e3c77a" opacity=".85"/><circle cx="256.7" cy="381.6" r="2.1" fill="#e3c77a" opacity=".85"/><circle cx="252.4" cy="380.2" r="2.1" fill="#e3c77a" opacity=".85"/><circle cx="252.4" cy="375.6" r="2.1" fill="#e3c77a" opacity=".85"/><circle cx="256.7" cy="374.2" r="2.1" fill="#e3c77a" opacity=".85"/><circle cx="255.5" cy="377.9" r="1.6" fill="#8c6a2a"/><circle cx="239.2" cy="465.0" r="3.5" fill="#e3c77a" opacity=".85"/><circle cx="234.8" cy="471.0" r="3.5" fill="#e3c77a" opacity=".85"/><circle cx="227.8" cy="468.7" r="3.5" fill="#e3c77a" opacity=".85"/><circle cx="227.8" cy="461.3" r="3.5" fill="#e3c77a" opacity=".85"/><circle cx="234.8" cy="459.0" r="3.5" fill="#e3c77a" opacity=".85"/><circle cx="232.9" cy="465.0" r="2.5" fill="#8c6a2a"/><circle cx="307.9" cy="391.1" r="3.5" fill="#e3c77a" opacity=".85"/><circle cx="303.5" cy="397.2" r="3.5" fill="#e3c77a" opacity=".85"/><circle cx="296.3" cy="394.9" r="3.5" fill="#e3c77a" opacity=".85"/><circle cx="296.3" cy="387.4" r="3.5" fill="#e3c77a" opacity=".85"/><circle cx="303.5" cy="385.1" r="3.5" fill="#e3c77a" opacity=".85"/><circle cx="301.5" cy="391.1" r="2.5" fill="#8c6a2a"/><circle cx="275.7" cy="476.5" r="2.1" fill="#e3c77a" opacity=".85"/><circle cx="273.1" cy="480.2" r="2.1" fill="#e3c77a" opacity=".85"/><circle cx="268.7" cy="478.8" r="2.1" fill="#e3c77a" opacity=".85"/><circle cx="268.7" cy="474.2" r="2.1" fill="#e3c77a" opacity=".85"/><circle cx="273.1" cy="472.8" r="2.1" fill="#e3c77a" opacity=".85"/><circle cx="271.9" cy="476.5" r="1.6" fill="#8c6a2a"/><circle cx="335.5" cy="398.4" r="2.7" fill="#e3c77a" opacity=".85"/><circle cx="332.1" cy="403.0" r="2.7" fill="#e3c77a" opacity=".85"/><circle cx="326.7" cy="401.2" r="2.7" fill="#e3c77a" opacity=".85"/><circle cx="326.7" cy="395.5" r="2.7" fill="#e3c77a" opacity=".85"/><circle cx="332.1" cy="393.7" r="2.7" fill="#e3c77a" opacity=".85"/><circle cx="330.6" cy="398.4" r="1.9" fill="#8c6a2a"/><circle cx="350.9" cy="371.7" r="3.0" fill="#e3c77a" opacity=".85"/><circle cx="347.2" cy="376.8" r="3.0" fill="#e3c77a" opacity=".85"/><circle cx="341.2" cy="374.8" r="3.0" fill="#e3c77a" opacity=".85"/><circle cx="341.2" cy="368.5" r="3.0" fill="#e3c77a" opacity=".85"/><circle cx="347.2" cy="366.5" r="3.0" fill="#e3c77a" opacity=".85"/><circle cx="345.5" cy="371.7" r="2.2" fill="#8c6a2a"/><circle cx="372.8" cy="536.8" r="2.7" fill="#e3c77a" opacity=".85"/><circle cx="369.4" cy="541.5" r="2.7" fill="#e3c77a" opacity=".85"/><circle cx="363.8" cy="539.7" r="2.7" fill="#e3c77a" opacity=".85"/><circle cx="363.8" cy="533.9" r="2.7" fill="#e3c77a" opacity=".85"/><circle cx="369.4" cy="532.1" r="2.7" fill="#e3c77a" opacity=".85"/><circle cx="367.8" cy="536.8" r="2.0" fill="#8c6a2a"/><circle cx="226.9" cy="447.5" r="2.9" fill="#e3c77a" opacity=".85"/><circle cx="223.3" cy="452.5" r="2.9" fill="#e3c77a" opacity=".85"/><circle cx="217.5" cy="450.6" r="2.9" fill="#e3c77a" opacity=".85"/><circle cx="217.5" cy="444.5" r="2.9" fill="#e3c77a" opacity=".85"/><circle cx="223.3" cy="442.6" r="2.9" fill="#e3c77a" opacity=".85"/><circle cx="221.7" cy="447.5" r="2.1" fill="#8c6a2a"/><path d="M 219.0 171.3 Q 162.0 296.4 187.8 517.2 Q 204.3 590.8 162.0 646.0 L 204.3 657.0 Q 241.1 554.0 228.2 434.4 Q 222.7 305.6 270.6 141.8 Z" fill="#8c6a2a" opacity=".55"/><path d="M 162.0 646.0 L 204.3 657.0" stroke="#c9a24a" stroke-width="5.5"/>
<text x="300" y="784" text-anchor="middle" font-family="Georgia,serif" font-size="11" letter-spacing="6" fill="#c9a24a" opacity=".8">EASHAL MIRHA</text>
</svg>