<svg xmlns="http://www.w3.org/2000/svg" viewBox="0 0 600 800" width="600" height="800">
<defs><linearGradient id="bg4" x1="0" y1="0" x2="0" y2="1"><stop offset="0" stop-color="#efe2d2"/><stop offset="1" stop-color="#d8c2a6"/></linearGradient>
<radialGradient id="gl4" cx=".5" cy=".38" r=".55"><stop offset="0" stop-color="#fff" stop-opacity=".55"/><stop offset="1" stop-color="#fff" stop-opacity="0"/></radialGradient><linearGradient id="dgp4" x1="0" y1="0" x2="1" y2="1"><stop offset="0" stop-color="#f2d0d3"/><stop offset=".55" stop-color="#c6aaad"/><stop offset="1" stop-color="#917c7e"/></linearGradient></defs>
<rect width="600" height="800" fill="url(#bg4)"/><rect width="600" height="800" fill="url(#gl4)"/>
<path d="M 100.0 820 L 100.0 280.0 Q 100.0 108.0 300 60 Q 500.0 108.0 500.0 280.0 L 500.0 820" fill="none" stroke="#8f6f24" stroke-width="1.5" opacity="0.55"/><path d="M 120.0 840 L 120.0 278.0 Q 120.0 123.19999999999999 300 80 Q 480.0 123.19999999999999 480.0 278.0 L 480.0 840" fill="none" stroke="#8f6f24" stroke-width="0.8" opacity="0.35"/>
<circle cx="142" cy="83" r="2.0" fill="#e3c77a" opacity="0.16"/><circle cx="40" cy="321" r="3.3" fill="#e3c77a" opacity="0.42"/><circle cx="459" cy="178" r="2.3" fill="#e3c77a" opacity="0.21"/><circle cx="104" cy="85" r="1.5" fill="#e3c77a" opacity="0.47"/><circle cx="497" cy="645" r="3.0" fill="#e3c77a" opacity="0.18"/><circle cx="186" cy="502" r="2.8" fill="#e3c77a" opacity="0.44"/><circle cx="528" cy="69" r="2.5" fill="#e3c77a" opacity="0.37"/><circle cx="304" cy="142" r="2.2" fill="#e3c77a" opacity="0.14"/><circle cx="561" cy="692" r="2.4" fill="#e3c77a" opacity="0.22"/><circle cx="545" cy="458" r="3.2" fill="#e3c77a" opacity="0.44"/><circle cx="305" cy="331" r="2.5" fill="#e3c77a" opacity="0.27"/><circle cx="97" cy="244" r="3.0" fill="#e3c77a" opacity="0.12"/><circle cx="28" cy="501" r="1.7" fill="#e3c77a" opacity="0.31"/><circle cx="283" cy="274" r="3.5" fill="#e3c77a" opacity="0.18"/><circle cx="248" cy="162" r="2.6" fill="#e3c77a" opacity="0.21"/><circle cx="213" cy="598" r="1.8" fill="#e3c77a" opacity="0.32"/><circle cx="543" cy="81" r="1.2" fill="#e3c77a" opacity="0.19"/><circle cx="459" cy="492" r="1.6" fill="#e3c77a" opacity="0.23"/><circle cx="107" cy="367" r="1.1" fill="#e3c77a" opacity="0.38"/><circle cx="538" cy="764" r="2.8" fill="#e3c77a" opacity="0.48"/><circle cx="11" cy="231" r="3.4" fill="#e3c77a" opacity="0.41"/><circle cx="246" cy="755" r="2.6" fill="#e3c77a" opacity="0.43"/><circle cx="176" cy="153" r="2.1" fill="#e3c77a" opacity="0.15"/><circle cx="229" cy="769" r="1.8" fill="#e3c77a" opacity="0.10"/><circle cx="27" cy="136" r="3.0" fill="#e3c77a" opacity="0.25"/><circle cx="174" cy="78" r="3.5" fill="#e3c77a" opacity="0.27"/><circle cx="125" cy="47" r="1.1" fill="#e3c77a" opacity="0.17"/><circle cx="406" cy="120" r="1.1" fill="#e3c77a" opacity="0.30"/><circle cx="149" cy="798" r="1.3" fill="#e3c77a" opacity="0.31"/><circle cx="464" cy="327" r="3.5" fill="#e3c77a" opacity="0.29"/><circle cx="145" cy="328" r="1.1" fill="#e3c77a" opacity="0.27"/><circle cx="149" cy="711" r="3.1" fill="#e3c77a" opacity="0.30"/><circle cx="19" cy="204" r="1.6" fill="#e3c77a" opacity="0.18"/><circle cx="139" cy="696" r="1.4" fill="#e3c77a" opacity="0.12"/><circle cx="557" cy="452" r="3.5" fill="#e3c77a" opacity="0.26"/><circle cx="541" cy="523" r="3.0" fill="#e3c77a" opacity="0.40"/><circle cx="297" cy="74" r="1.5" fill="#e3c77a" opacity="0.45"/><circle cx="540" cy="740" r="1.8" fill="#e3c77a" opacity="0.36"/><circle cx="480" cy="514" r="3.0" fill="#e3c77a" opacity="0.31"/><circle cx="393" cy="549" r="1.7" fill="#e3c77a" opacity="0.47"/>
<ellipse cx="300" cy="768" rx="200" ry="14" fill="#000" opacity=".18"/>
<path d="M 231.0 581.6 L 369.0 581.6 L 355.2 728.8 L 316.6 728.8 L 300.0 646.0 L 283.4 728.8 L 244.8 728.8 Z" fill="#c99096" opacity=".9"/><path d="M 270.6 140.0 Q 300.0 169.4 329.4 140.0 L 381.0 169.4 Q 410.4 241.2 430.6 359.0 L 395.7 368.2 L 357.0 243.0 L 347.8 307.4 Q 350.6 480.4 387.4 590.8 Q 300.0 607.4 212.6 590.8 Q 249.4 480.4 252.2 307.4 L 243.0 243.0 L 204.3 368.2 L 169.4 359.0 Q 189.6 241.2 219.0 169.4 Z" fill="url(#dgp4)"/><path d="M 265.0 141.8 Q 300.0 199.8 335.0 141.8" fill="none" stroke="#e3c77a" stroke-width="4.6" stroke-dasharray="1.8 5.5" stroke-linecap="round"/><path d="M 272.4 149.2 Q 300.0 215.4 327.6 149.2" fill="none" stroke="#c9a24a" stroke-width="1.8"/><circle cx="263.1" cy="207.3" r="2.9" fill="#e3c77a"/><circle cx="272.3" cy="217.9" r="2.9" fill="#e3c77a"/><circle cx="285.2" cy="225.0" r="2.9" fill="#e3c77a"/><circle cx="300.0" cy="227.4" r="2.9" fill="#e3c77a"/><circle cx="314.8" cy="225.0" r="2.9" fill="#e3c77a"/><circle cx="327.7" cy="217.9" r="2.9" fill="#e3c77a"/><circle cx="336.9" cy="207.3" r="2.9" fill="#e3c77a"/><path d="M 252.2 309.3 Q 300.0 324.0 347.8 309.3" fill="none" stroke="#c9a24a" stroke-width="6.4"/><path d="M 254.0 309.3 Q 300.0 324.0 346.0 309.3" fill="none" stroke="#e3c77a" stroke-width="1.8" stroke-dasharray="0.9 4.6" stroke-linecap="round"/><path d="M 171.2 353.4 L 206.2 362.6" stroke="#c9a24a" stroke-width="7.4"/><path d="M 393.8 362.6 L 428.8 353.4" stroke="#c9a24a" stroke-width="7.4"/><path d="M 218.1 576.1 Q 300.0 592.6 381.9 576.1" fill="none" stroke="#c9a24a" stroke-width="12.9"/><path d="M 218.1 555.8 Q 300.0 572.4 381.9 555.8" fill="none" stroke="#e3c77a" stroke-width="2.8"/><path d="M 218.1 539.3 Q 300.0 555.8 381.9 539.3" fill="none" stroke="#e3c77a" stroke-width="5.5" stroke-dasharray="1 9" stroke-linecap="round"/><circle cx="310.4" cy="424.7" r="2.3" fill="#e3c77a" opacity=".85"/><circle cx="307.5" cy="428.8" r="2.3" fill="#e3c77a" opacity=".85"/><circle cx="302.8" cy="427.2" r="2.3" fill="#e3c77a" opacity=".85"/><circle cx="302.8" cy="422.3" r="2.3" fill="#e3c77a" opacity=".85"/><circle cx="307.5" cy="420.7" r="2.3" fill="#e3c77a" opacity=".85"/><circle cx="306.2" cy="424.7" r="1.7" fill="#c99096"/><circle cx="306.2" cy="447.7" r="2.0" fill="#e3c77a" opacity=".85"/><circle cx="303.7" cy="451.3" r="2.0" fill="#e3c77a" opacity=".85"/><circle cx="299.5" cy="449.9" r="2.0" fill="#e3c77a" opacity=".85"/><circle cx="299.5" cy="445.5" r="2.0" fill="#e3c77a" opacity=".85"/><circle cx="303.7" cy="444.2" r="2.0" fill="#e3c77a" opacity=".85"/><circle cx="302.5" cy="447.7" r="1.5" fill="#c99096"/><circle cx="280.0" cy="387.7" r="2.9" fill="#e3c77a" opacity=".85"/><circle cx="276.3" cy="392.8" r="2.9" fill="#e3c77a" opacity=".85"/><circle cx="270.4" cy="390.8" r="2.9" fill="#e3c77a" opacity=".85"/><circle cx="270.4" cy="384.5" r="2.9" fill="#e3c77a" opacity=".85"/><circle cx="276.3" cy="382.6" r="2.9" fill="#e3c77a" opacity=".85"/><circle cx="274.7" cy="387.7" r="2.1" fill="#c99096"/><circle cx="330.3" cy="372.5" r="2.4" fill="#e3c77a" opacity=".85"/><circle cx="327.3" cy="376.6" r="2.4" fill="#e3c77a" opacity=".85"/><circle cx="322.5" cy="375.0" r="2.4" fill="#e3c77a" opacity=".85"/><circle cx="322.5" cy="369.9" r="2.4" fill="#e3c77a" opacity=".85"/><circle cx="327.3" cy="368.4" r="2.4" fill="#e3c77a" opacity=".85"/><circle cx="326.0" cy="372.5" r="1.7" fill="#c99096"/><circle cx="331.0" cy="474.0" r="2.1" fill="#e3c77a" opacity=".85"/><circle cx="328.4" cy="477.6" r="2.1" fill="#e3c77a" opacity=".85"/><circle cx="324.0" cy="476.2" r="2.1" fill="#e3c77a" opacity=".85"/><circle cx="324.0" cy="471.7" r="2.1" fill="#e3c77a" opacity=".85"/><circle cx="328.4" cy="470.3" r="2.1" fill="#e3c77a" opacity=".85"/><circle cx="327.2" cy="474.0" r="1.5" fill="#c99096"/><circle cx="340.0" cy="400.9" r="2.6" fill="#e3c77a" opacity=".85"/><circle cx="336.7" cy="405.4" r="2.6" fill="#e3c77a" opacity=".85"/><circle cx="331.3" cy="403.7" r="2.6" fill="#e3c77a" opacity=".85"/><circle cx="331.3" cy="398.1" r="2.6" fill="#e3c77a" opacity=".85"/><circle cx="336.7" cy="396.3" r="2.6" fill="#e3c77a" opacity=".85"/><circle cx="335.2" cy="400.9" r="1.9" fill="#c99096"/><circle cx="278.7" cy="452.6" r="3.5" fill="#e3c77a" opacity=".85"/><circle cx="274.3" cy="458.6" r="3.5" fill="#e3c77a" opacity=".85"/><circle cx="267.2" cy="456.3" r="3.5" fill="#e3c77a" opacity=".85"/><circle cx="267.2" cy="448.9" r="3.5" fill="#e3c77a" opacity=".85"/><circle cx="274.3" cy="446.6" r="3.5" fill="#e3c77a" opacity=".85"/><circle cx="272.3" cy="452.6" r="2.5" fill="#c99096"/><circle cx="273.8" cy="475.1" r="3.4" fill="#e3c77a" opacity=".85"/><circle cx="269.5" cy="481.0" r="3.4" fill="#e3c77a" opacity=".85"/><circle cx="262.5" cy="478.8" r="3.4" fill="#e3c77a" opacity=".85"/><circle cx="262.5" cy="471.4" r="3.4" fill="#e3c77a" opacity=".85"/><circle cx="269.5" cy="469.1" r="3.4" fill="#e3c77a" opacity=".85"/><circle cx="267.5" cy="475.1" r="2.5" fill="#c99096"/>
<text x="300" y="784" text-anchor="middle" font-family="Georgia,serif" font-size="11" letter-spacing="6" fill="#8f6f24" opacity=".8">EASHAL MIRHA</text>
</svg>