<svg xmlns="http://www.w3.org/2000/svg" viewBox="0 0 600 800" width="600" height="800">
<defs><linearGradient id="bg7" x1="0" y1="0" x2="0" y2="1"><stop offset="0" stop-color="#0d2520"/><stop offset="1" stop-color="#06110f"/></linearGradient>
<radialGradient id="gl7" cx=".5" cy=".38" r=".55"><stop offset="0" stop-color="#fff" stop-opacity=".10"/><stop offset="1" stop-color="#fff" stop-opacity="0"/></radialGradient><linearGradient id="dgp7" x1="0" y1="0" x2="1" y2="1"><stop offset="0" stop-color="#0f5c4a"/><stop offset=".55" stop-color="#0c4b3c"/><stop offset="1" stop-color="#09372c"/></linearGradient></defs>
<rect width="600" height="800" fill="url(#bg7)"/><rect width="600" height="800" fill="url(#gl7)"/>
<path d="M 100.0 820 L 100.0 280.0 Q 100.0 108.0 300 60 Q 500.0 108.0 500.0 280.0 L 500.0 820" fill="none" stroke="#c9a24a" stroke-width="1.5" opacity="0.55"/><path d="M 120.0 840 L 120.0 278.0 Q 120.0 123.19999999999999 300 80 Q 480.0 123.19999999999999 480.0 278.0 L 480.0 840" fill="none" stroke="#c9a24a" stroke-width="0.8" opacity="0.35"/>
<circle cx="194" cy="121" r="2.6" fill="#e3c77a" opacity="0.12"/><circle cx="322" cy="293" r="1.1" fill="#e3c77a" opacity="0.23"/><circle cx="22" cy="347" r="1.2" fill="#e3c77a" opacity="0.12"/><circle cx="255" cy="661" r="1.3" fill="#e3c77a" opacity="0.16"/><circle cx="376" cy="758" r="2.4" fill="#e3c77a" opacity="0.20"/><circle cx="586" cy="37" r="3.1" fill="#e3c77a" opacity="0.17"/><circle cx="87" cy="94" r="1.8" fill="#e3c77a" opacity="0.30"/><circle cx="108" cy="465" r="2.6" fill="#e3c77a" opacity="0.19"/><circle cx="329" cy="50" r="1.1" fill="#e3c77a" opacity="0.15"/><circle cx="408" cy="342" r="1.8" fill="#e3c77a" opacity="0.25"/><circle cx="272" cy="240" r="3.0" fill="#e3c77a" opacity="0.27"/><circle cx="146" cy="460" r="2.3" fill="#e3c77a" opacity="0.32"/><circle cx="438" cy="230" r="3.5" fill="#e3c77a" opacity="0.13"/><circle cx="251" cy="606" r="1.4" fill="#e3c77a" opacity="0.22"/><circle cx="24" cy="535" r="2.9" fill="#e3c77a" opacity="0.24"/><circle cx="525" cy="251" r="2.7" fill="#e3c77a" opacity="0.25"/><circle cx="348" cy="365" r="3.1" fill="#e3c77a" opacity="0.34"/><circle cx="284" cy="531" r="1.2" fill="#e3c77a" opacity="0.28"/><circle cx="388" cy="794" r="3.1" fill="#e3c77a" opacity="0.17"/><circle cx="231" cy="535" r="1.1" fill="#e3c77a" opacity="0.22"/><circle cx="101" cy="94" r="1.1" fill="#e3c77a" opacity="0.29"/><circle cx="78" cy="198" r="2.0" fill="#e3c77a" opacity="0.32"/><circle cx="48" cy="359" r="2.4" fill="#e3c77a" opacity="0.32"/><circle cx="492" cy="691" r="1.7" fill="#e3c77a" opacity="0.20"/><circle cx="215" cy="707" r="3.4" fill="#e3c77a" opacity="0.14"/><circle cx="106" cy="186" r="1.6" fill="#e3c77a" opacity="0.22"/><circle cx="353" cy="210" r="1.0" fill="#e3c77a" opacity="0.20"/><circle cx="222" cy="453" r="3.4" fill="#e3c77a" opacity="0.27"/><circle cx="309" cy="494" r="2.7" fill="#e3c77a" opacity="0.11"/><circle cx="540" cy="624" r="3.2" fill="#e3c77a" opacity="0.30"/><circle cx="235" cy="319" r="1.3" fill="#e3c77a" opacity="0.26"/><circle cx="37" cy="54" r="1.5" fill="#e3c77a" opacity="0.14"/><circle cx="204" cy="42" r="1.0" fill="#e3c77a" opacity="0.14"/><circle cx="61" cy="291" r="1.1" fill="#e3c77a" opacity="0.32"/><circle cx="368" cy="119" r="1.6" fill="#e3c77a" opacity="0.19"/><circle cx="218" cy="98" r="3.1" fill="#e3c77a" opacity="0.35"/><circle cx="280" cy="387" r="1.2" fill="#e3c77a" opacity="0.13"/><circle cx="206" cy="212" r="3.1" fill="#e3c77a" opacity="0.14"/><circle cx="14" cy="761" r="2.3" fill="#e3c77a" opacity="0.14"/><circle cx="326" cy="22" r="2.3" fill="#e3c77a" opacity="0.34"/>
<ellipse cx="300" cy="768" rx="200" ry="14" fill="#000" opacity=".18"/>
<path d="M 270.6 140.0 Q 300.0 169.4 329.4 140.0 L 381.0 169.4 Q 410.4 241.2 430.6 359.0 L 395.7 368.2 L 357.0 243.0 L 347.8 307.4 Q 428.8 480.4 465.6 673.6 Q 300.0 690.2 134.4 673.6 Q 171.2 480.4 252.2 307.4 L 243.0 243.0 L 204.3 368.2 L 169.4 359.0 Q 189.6 241.2 219.0 169.4 Z" fill="url(#dgp7)"/><path d="M 265.0 141.8 Q 300.0 199.8 335.0 141.8" fill="none" stroke="#e3c77a" stroke-width="4.6" stroke-dasharray="1.8 5.5" stroke-linecap="round"/><path d="M 272.4 149.2 Q 300.0 215.4 327.6 149.2" fill="none" stroke="#c9a24a" stroke-width="1.8"/><circle cx="263.1" cy="207.3" r="2.9" fill="#e3c77a"/><circle cx="272.3" cy="217.9" r="2.9" fill="#e3c77a"/><circle cx="285.2" cy="225.0" r="2.9" fill="#e3c77a"/><circle cx="300.0" cy="227.4" r="2.9" fill="#e3c77a"/><circle cx="314.8" cy="225.0" r="2.9" fill="#e3c77a"/><circle cx="327.7" cy="217.9" r="2.9" fill="#e3c77a"/><circle cx="336.9" cy="207.3" r="2.9" fill="#e3c77a"/><path d="M 252.2 309.3 Q 300.0 324.0 347.8 309.3" fill="none" stroke="#c9a24a" stroke-width="6.4"/><path d="M 254.0 309.3 Q 300.0 324.0 346.0 309.3" fill="none" stroke="#e3c77a" stroke-width="1.8" stroke-dasharray="0.9 4.6" stroke-linecap="round"/><path d="M 171.2 353.4 L 206.2 362.6" stroke="#c9a24a" stroke-width="7.4"/><path d="M 393.8 362.6 L 428.8 353.4" stroke="#c9a24a" stroke-width="7.4"/><path d="M 139.9 658.9 Q 300.0 675.4 460.1 658.9" fill="none" stroke="#c9a24a" stroke-width="12.9"/><path d="M 139.9 638.6 Q 300.0 655.2 460.1 638.6" fill="none" stroke="#e3c77a" stroke-width="2.8"/><path d="M 139.9 622.1 Q 300.0 638.6 460.1 622.1" fill="none" stroke="#e3c77a" stroke-width="5.5" stroke-dasharray="1 9" stroke-linecap="round"/><circle cx="319.1" cy="523.4" r="2.2" fill="#e3c77a" opacity=".85"/><circle cx="316.3" cy="527.2" r="2.2" fill="#e3c77a" opacity=".85"/><circle cx="311.7" cy="525.8" r="2.2" fill="#e3c77a" opacity=".85"/><circle cx="311.7" cy="521.0" r="2.2" fill="#e3c77a" opacity=".85"/><circle cx="316.3" cy="519.5" r="2.2" fill="#e3c77a" opacity=".85"/><circle cx="315.0" cy="523.4" r="1.6" fill="#c9a24a"/><circle cx="297.3" cy="352.3" r="3.5" fill="#e3c77a" opacity=".85"/><circle cx="292.9" cy="358.4" r="3.5" fill="#e3c77a" opacity=".85"/><circle cx="285.8" cy="356.1" r="3.5" fill="#e3c77a" opacity=".85"/><circle cx="285.8" cy="348.5" r="3.5" fill="#e3c77a" opacity=".85"/><circle cx="292.9" cy="346.2" r="3.5" fill="#e3c77a" opacity=".85"/><circle cx="290.9" cy="352.3" r="2.6" fill="#c9a24a"/><circle cx="283.2" cy="422.4" r="2.7" fill="#e3c77a" opacity=".85"/><circle cx="279.8" cy="427.0" r="2.7" fill="#e3c77a" opacity=".85"/><circle cx="274.3" cy="425.2" r="2.7" fill="#e3c77a" opacity=".85"/><circle cx="274.3" cy="419.5" r="2.7" fill="#e3c77a" opacity=".85"/><circle cx="279.8" cy="417.7" r="2.7" fill="#e3c77a" opacity=".85"/><circle cx="278.3" cy="422.4" r="2.0" fill="#c9a24a"/><circle cx="395.2" cy="538.3" r="3.3" fill="#e3c77a" opacity=".85"/><circle cx="391.0" cy="544.0" r="3.3" fill="#e3c77a" opacity=".85"/><circle cx="384.4" cy="541.8" r="3.3" fill="#e3c77a" opacity=".85"/><circle cx="384.4" cy="534.8" r="3.3" fill="#e3c77a" opacity=".85"/><circle cx="391.0" cy="532.7" r="3.3" fill="#e3c77a" opacity=".85"/><circle cx="389.2" cy="538.3" r="2.4" fill="#c9a24a"/><circle cx="339.0" cy="385.5" r="2.1" fill="#e3c77a" opacity=".85"/><circle cx="336.4" cy="389.1" r="2.1" fill="#e3c77a" opacity=".85"/><circle cx="332.1" cy="387.7" r="2.1" fill="#e3c77a" opacity=".85"/><circle cx="332.1" cy="383.2" r="2.1" fill="#e3c77a" opacity=".85"/><circle cx="336.4" cy="381.9" r="2.1" fill="#e3c77a" opacity=".85"/><circle cx="335.2" cy="385.5" r="1.5" fill="#c9a24a"/><circle cx="276.3" cy="388.7" r="3.4" fill="#e3c77a" opacity=".85"/><circle cx="272.0" cy="394.6" r="3.4" fill="#e3c77a" opacity=".85"/><circle cx="265.1" cy="392.3" r="3.4" fill="#e3c77a" opacity=".85"/><circle cx="265.1" cy="385.1" r="3.4" fill="#e3c77a" opacity=".85"/><circle cx="272.0" cy="382.9" r="3.4" fill="#e3c77a" opacity=".85"/><circle cx="270.1" cy="388.7" r="2.5" fill="#c9a24a"/><circle cx="301.3" cy="453.8" r="3.4" fill="#e3c77a" opacity=".85"/><circle cx="297.0" cy="459.7" r="3.4" fill="#e3c77a" opacity=".85"/><circle cx="290.0" cy="457.4" r="3.4" fill="#e3c77a" opacity=".85"/><circle cx="290.0" cy="450.1" r="3.4" fill="#e3c77a" opacity=".85"/><circle cx="297.0" cy="447.9" r="3.4" fill="#e3c77a" opacity=".85"/><circle cx="295.1" cy="453.8" r="2.5" fill="#c9a24a"/><circle cx="329.0" cy="431.6" r="2.9" fill="#e3c77a" opacity=".85"/><circle cx="325.4" cy="436.6" r="2.9" fill="#e3c77a" opacity=".85"/><circle cx="319.5" cy="434.7" r="2.9" fill="#e3c77a" opacity=".85"/><circle cx="319.5" cy="428.5" r="2.9" fill="#e3c77a" opacity=".85"/><circle cx="325.4" cy="426.6" r="2.9" fill="#e3c77a" opacity=".85"/><circle cx="323.7" cy="431.6" r="2.1" fill="#c9a24a"/><circle cx="383.5" cy="519.3" r="3.1" fill="#e3c77a" opacity=".85"/><circle cx="379.6" cy="524.7" r="3.1" fill="#e3c77a" opacity=".85"/><circle cx="373.3" cy="522.7" r="3.1" fill="#e3c77a" opacity=".85"/><circle cx="373.3" cy="516.0" r="3.1" fill="#e3c77a" opacity=".85"/><circle cx="379.6" cy="514.0" r="3.1" fill="#e3c77a" opacity=".85"/><circle cx="377.8" cy="519.3" r="2.3" fill="#c9a24a"/><circle cx="264.8" cy="546.0" r="3.1" fill="#e3c77a" opacity=".85"/><circle cx="260.9" cy="551.4" r="3.1" fill="#e3c77a" opacity=".85"/><circle cx="254.5" cy="549.3" r="3.1" fill="#e3c77a" opacity=".85"/><circle cx="254.5" cy="542.6" r="3.1" fill="#e3c77a" opacity=".85"/><circle cx="260.9" cy="540.6" r="3.1" fill="#e3c77a" opacity=".85"/><circle cx="259.1" cy="546.0" r="2.3" fill="#c9a24a"/><circle cx="380.2" cy="454.1" r="3.5" fill="#e3c77a" opacity=".85"/><circle cx="375.8" cy="460.1" r="3.5" fill="#e3c77a" opacity=".85"/><circle cx="368.8" cy="457.9" r="3.5" fill="#e3c77a" opacity=".85"/><circle cx="368.8" cy="450.4" r="3.5" fill="#e3c77a" opacity=".85"/><circle cx="375.8" cy="448.1" r="3.5" fill="#e3c77a" opacity=".85"/><circle cx="373.9" cy="454.1" r="2.5" fill="#c9a24a"/><circle cx="279.8" cy="360.6" r="2.7" fill="#e3c77a" opacity=".85"/><circle cx="276.4" cy="365.3" r="2.7" fill="#e3c77a" opacity=".85"/><circle cx="271.0" cy="363.5" r="2.7" fill="#e3c77a" opacity=".85"/><circle cx="271.0" cy="357.8" r="2.7" fill="#e3c77a" opacity=".85"/><circle cx="276.4" cy="356.0" r="2.7" fill="#e3c77a" opacity=".85"/><circle cx="274.9" cy="360.6" r="2.0" fill="#c9a24a"/><circle cx="355.1" cy="462.2" r="3.0" fill="#e3c77a" opacity=".85"/><circle cx="351.4" cy="467.3" r="3.0" fill="#e3c77a" opacity=".85"/><circle cx="345.4" cy="465.4" r="3.0" fill="#e3c77a" opacity=".85"/><circle cx="345.4" cy="459.0" r="3.0" fill="#e3c77a" opacity=".85"/><circle cx="351.4" cy="457.1" r="3.0" fill="#e3c77a" opacity=".85"/><circle cx="349.7" cy="462.2" r="2.2" fill="#c9a24a"/><circle cx="384.4" cy="568.5" r="3.2" fill="#e3c77a" opacity=".85"/><circle cx="380.3" cy="574.1" r="3.2" fill="#e3c77a" opacity=".85"/><circle cx="373.7" cy="571.9" r="3.2" fill="#e3c77a" opacity=".85"/><circle cx="373.7" cy="565.0" r="3.2" fill="#e3c77a" opacity=".85"/><circle cx="380.3" cy="562.9" r="3.2" fill="#e3c77a" opacity=".85"/><circle cx="378.5" cy="568.5" r="2.4" fill="#c9a24a"/><path d="M 219.0 171.3 Q 162.0 296.4 187.8 517.2 Q 204.3 590.8 162.0 646.0 L 204.3 657.0 Q 241.1 554.0 228.2 434.4 Q 222.7 305.6 270.6 141.8 Z" fill="#c9a24a" opacity=".55"/><path d="M 162.0 646.0 L 204.3 657.0" stroke="#c9a24a" stroke-width="5.5"/>
<text x="300" y="784" text-anchor="middle" font-family="Georgia,serif" font-size="11" letter-spacing="6" fill="#c9a24a" opacity=".8">EASHAL MIRHA</text>
</svg>