<svg xmlns="http://www.w3.org/2000/svg" viewBox="0 0 600 800" width="600" height="800">
<defs><linearGradient id="bg8" x1="0" y1="0" x2="0" y2="1"><stop offset="0" stop-color="#123a32"/><stop offset="1" stop-color="#071714"/></linearGradient>
<radialGradient id="gl8" cx=".5" cy=".38" r=".55"><stop offset="0" stop-color="#fff" stop-opacity=".10"/><stop offset="1" stop-color="#fff" stop-opacity="0"/></radialGradient><linearGradient id="dgp8" x1="0" y1="0" x2="1" y2="1"><stop offset="0" stop-color="#1c6b57"/><stop offset=".55" stop-color="#165747"/><stop offset="1" stop-color="#104034"/></linearGradient></defs>
<rect width="600" height="800" fill="url(#bg8)"/><rect width="600" height="800" fill="url(#gl8)"/>
<path d="M 100.0 820 L 100.0 280.0 Q 100.0 108.0 300 60 Q 500.0 108.0 500.0 280.0 L 500.0 820" fill="none" stroke="#c9a24a" stroke-width="1.5" opacity="0.55"/><path d="M 120.0 840 L 120.0 278.0 Q 120.0 123.19999999999999 300 80 Q 480.0 123.19999999999999 480.0 278.0 L 480.0 840" fill="none" stroke="#c9a24a" stroke-width="0.8" opacity="0.35"/>
<circle cx="136" cy="770" r="1.3" fill="#e3c77a" opacity="0.28"/><circle cx="51" cy="198" r="3.5" fill="#e3c77a" opacity="0.15"/><circle cx="385" cy="367" r="2.1" fill="#e3c77a" opacity="0.22"/><circle cx="115" cy="664" r="1.2" fill="#e3c77a" opacity="0.16"/><circle cx="12" cy="213" r="2.0" fill="#e3c77a" opacity="0.33"/><circle cx="227" cy="91" r="1.6" fill="#e3c77a" opacity="0.35"/><circle cx="38" cy="496" r="1.9" fill="#e3c77a" opacity="0.27"/><circle cx="203" cy="553" r="2.2" fill="#e3c77a" opacity="0.26"/><circle cx="541" cy="465" r="1.4" fill="#e3c77a" opacity="0.12"/><circle cx="568" cy="391" r="1.5" fill="#e3c77a" opacity="0.34"/><circle cx="347" cy="583" r="3.2" fill="#e3c77a" opacity="0.17"/><circle cx="214" cy="702" r="1.3" fill="#e3c77a" opacity="0.29"/><circle cx="59" cy="552" r="2.8" fill="#e3c77a" opacity="0.34"/><circle cx="506" cy="403" r="1.5" fill="#e3c77a" opacity="0.14"/><circle cx="317" cy="408" r="1.2" fill="#e3c77a" opacity="0.33"/><circle cx="304" cy="561" r="1.5" fill="#e3c77a" opacity="0.16"/><circle cx="7" cy="275" r="1.7" fill="#e3c77a" opacity="0.21"/><circle cx="226" cy="667" r="3.2" fill="#e3c77a" opacity="0.14"/><circle cx="238" cy="133" r="2.7" fill="#e3c77a" opacity="0.34"/><circle cx="121" cy="613" r="1.8" fill="#e3c77a" opacity="0.10"/><circle cx="459" cy="273" r="1.4" fill="#e3c77a" opacity="0.21"/><circle cx="139" cy="328" r="2.1" fill="#e3c77a" opacity="0.20"/><circle cx="353" cy="231" r="1.2" fill="#e3c77a" opacity="0.12"/><circle cx="64" cy="417" r="1.9" fill="#e3c77a" opacity="0.30"/><circle cx="303" cy="567" r="3.5" fill="#e3c77a" opacity="0.12"/><circle cx="10" cy="112" r="2.0" fill="#e3c77a" opacity="0.24"/><circle cx="446" cy="281" r="3.4" fill="#e3c77a" opacity="0.10"/><circle cx="501" cy="168" r="3.2" fill="#e3c77a" opacity="0.11"/><circle cx="579" cy="608" r="3.5" fill="#e3c77a" opacity="0.25"/><circle cx="107" cy="776" r="2.1" fill="#e3c77a" opacity="0.12"/><circle cx="363" cy="398" r="2.2" fill="#e3c77a" opacity="0.14"/><circle cx="73" cy="465" r="2.1" fill="#e3c77a" opacity="0.13"/><circle cx="264" cy="580" r="2.8" fill="#e3c77a" opacity="0.22"/><circle cx="236" cy="289" r="1.6" fill="#e3c77a" opacity="0.15"/><circle cx="268" cy="87" r="2.8" fill="#e3c77a" opacity="0.28"/><circle cx="367" cy="18" r="1.9" fill="#e3c77a" opacity="0.21"/><circle cx="56" cy="774" r="2.9" fill="#e3c77a" opacity="0.23"/><circle cx="423" cy="161" r="1.6" fill="#e3c77a" opacity="0.23"/><circle cx="446" cy="518" r="1.0" fill="#e3c77a" opacity="0.25"/><circle cx="545" cy="595" r="3.3" fill="#e3c77a" opacity="0.35"/>
<ellipse cx="300" cy="768" rx="200" ry="14" fill="#000" opacity=".18"/>
<path d="M 270.6 140.0 Q 300.0 169.4 329.4 140.0 L 381.0 169.4 Q 410.4 241.2 430.6 359.0 L 395.7 368.2 L 357.0 243.0 L 347.8 307.4 Q 428.8 480.4 465.6 673.6 Q 300.0 690.2 134.4 673.6 Q 171.2 480.4 252.2 307.4 L 243.0 243.0 L 204.3 368.2 L 169.4 359.0 Q 189.6 241.2 219.0 169.4 Z" fill="url(#dgp8)"/><path d="M 265.0 141.8 Q 300.0 199.8 335.0 141.8" fill="none" stroke="#e3c77a" stroke-width="4.6" stroke-dasharray="1.8 5.5" stroke-linecap="round"/><path d="M 272.4 149.2 Q 300.0 215.4 327.6 149.2" fill="none" stroke="#c9a24a" stroke-width="1.8"/><circle cx="263.1" cy="207.3" r="2.9" fill="#e3c77a"/><circle cx="272.3" cy="217.9" r="2.9" fill="#e3c77a"/><circle cx="285.2" cy="225.0" r="2.9" fill="#e3c77a"/><circle cx="300.0" cy="227.4" r="2.9" fill="#e3c77a"/><circle cx="314.8" cy="225.0" r="2.9" fill="#e3c77a"/><circle cx="327.7" cy="217.9" r="2.9" fill="#e3c77a"/><circle cx="336.9" cy="207.3" r="2.9" fill="#e3c77a"/><path d="M 252.2 309.3 Q 300.0 324.0 347.8 309.3" fill="none" stroke="#c9a24a" stroke-width="6.4"/><path d="M 254.0 309.3 Q 300.0 324.0 346.0 309.3" fill="none" stroke="#e3c77a" stroke-width="1.8" stroke-dasharray="0.9 4.6" stroke-linecap="round"/><path d="M 171.2 353.4 L 206.2 362.6" stroke="#c9a24a" stroke-width="7.4"/><path d="M 393.8 362.6 L 428.8 353.4" stroke="#c9a24a" stroke-width="7.4"/><path d="M 139.9 658.9 Q 300.0 675.4 460.1 658.9" fill="none" stroke="#c9a24a" stroke-width="12.9"/><path d="M 139.9 638.6 Q 300.0 655.2 460.1 638.6" fill="none" stroke="#e3c77a" stroke-width="2.8"/><path d="M 139.9 622.1 Q 300.0 638.6 460.1 622.1" fill="none" stroke="#e3c77a" stroke-width="5.5" stroke-dasharray="1 9" stroke-linecap="round"/><circle cx="368.9" cy="560.2" r="2.7" fill="#e3c77a" opacity=".85"/><circle cx="365.6" cy="564.8" r="2.7" fill="#e3c77a" opacity=".85"/><circle cx="360.2" cy="563.0" r="2.7" fill="#e3c77a" opacity=".85"/><circle cx="360.2" cy="557.3" r="2.7" fill="#e3c77a" opacity=".85"/><circle cx="365.6" cy="555.6" r="2.7" fill="#e3c77a" opacity=".85"/><circle cx="364.1" cy="560.2" r="1.9" fill="#e3c77a"/><circle cx="289.5" cy="579.8" r="3.3" fill="#e3c77a" opacity=".85"/><circle cx="285.4" cy="585.5" r="3.3" fill="#e3c77a" opacity=".85"/><circle cx="278.6" cy="583.3" r="3.3" fill="#e3c77a" opacity=".85"/><circle cx="278.6" cy="576.2" r="3.3" fill="#e3c77a" opacity=".85"/><circle cx="285.4" cy="574.0" r="3.3" fill="#e3c77a" opacity=".85"/><circle cx="283.5" cy="579.8" r="2.4" fill="#e3c77a"/><circle cx="350.3" cy="543.3" r="3.4" fill="#e3c77a" opacity=".85"/><circle cx="346.0" cy="549.1" r="3.4" fill="#e3c77a" opacity=".85"/><circle cx="339.1" cy="546.9" r="3.4" fill="#e3c77a" opacity=".85"/><circle cx="339.1" cy="539.7" r="3.4" fill="#e3c77a" opacity=".85"/><circle cx="346.0" cy="537.4" r="3.4" fill="#e3c77a" opacity=".85"/><circle cx="344.1" cy="543.3" r="2.5" fill="#e3c77a"/><circle cx="283.7" cy="373.7" r="2.6" fill="#e3c77a" opacity=".85"/><circle cx="280.4" cy="378.2" r="2.6" fill="#e3c77a" opacity=".85"/><circle cx="275.2" cy="376.5" r="2.6" fill="#e3c77a" opacity=".85"/><circle cx="275.2" cy="371.0" r="2.6" fill="#e3c77a" opacity=".85"/><circle cx="280.4" cy="369.3" r="2.6" fill="#e3c77a" opacity=".85"/><circle cx="279.0" cy="373.7" r="1.9" fill="#e3c77a"/><circle cx="325.8" cy="359.8" r="3.3" fill="#e3c77a" opacity=".85"/><circle cx="321.7" cy="365.5" r="3.3" fill="#e3c77a" opacity=".85"/><circle cx="315.1" cy="363.3" r="3.3" fill="#e3c77a" opacity=".85"/><circle cx="315.1" cy="356.3" r="3.3" fill="#e3c77a" opacity=".85"/><circle cx="321.7" cy="354.2" r="3.3" fill="#e3c77a" opacity=".85"/><circle cx="319.9" cy="359.8" r="2.4" fill="#e3c77a"/><circle cx="273.5" cy="450.6" r="3.4" fill="#e3c77a" opacity=".85"/><circle cx="269.3" cy="456.4" r="3.4" fill="#e3c77a" opacity=".85"/><circle cx="262.4" cy="454.2" r="3.4" fill="#e3c77a" opacity=".85"/><circle cx="262.4" cy="447.0" r="3.4" fill="#e3c77a" opacity=".85"/><circle cx="269.3" cy="444.8" r="3.4" fill="#e3c77a" opacity=".85"/><circle cx="267.4" cy="450.6" r="2.5" fill="#e3c77a"/><circle cx="311.7" cy="384.9" r="2.2" fill="#e3c77a" opacity=".85"/><circle cx="309.0" cy="388.6" r="2.2" fill="#e3c77a" opacity=".85"/><circle cx="304.6" cy="387.2" r="2.2" fill="#e3c77a" opacity=".85"/><circle cx="304.6" cy="382.5" r="2.2" fill="#e3c77a" opacity=".85"/><circle cx="309.0" cy="381.1" r="2.2" fill="#e3c77a" opacity=".85"/><circle cx="307.8" cy="384.9" r="1.6" fill="#e3c77a"/><circle cx="351.8" cy="362.2" r="3.5" fill="#e3c77a" opacity=".85"/><circle cx="347.3" cy="368.3" r="3.5" fill="#e3c77a" opacity=".85"/><circle cx="340.2" cy="365.9" r="3.5" fill="#e3c77a" opacity=".85"/><circle cx="340.2" cy="358.4" r="3.5" fill="#e3c77a" opacity=".85"/><circle cx="347.3" cy="356.1" r="3.5" fill="#e3c77a" opacity=".85"/><circle cx="345.4" cy="362.2" r="2.6" fill="#e3c77a"/><circle cx="364.3" cy="581.7" r="2.1" fill="#e3c77a" opacity=".85"/><circle cx="361.7" cy="585.4" r="2.1" fill="#e3c77a" opacity=".85"/><circle cx="357.5" cy="584.0" r="2.1" fill="#e3c77a" opacity=".85"/><circle cx="357.5" cy="579.5" r="2.1" fill="#e3c77a" opacity=".85"/><circle cx="361.7" cy="578.1" r="2.1" fill="#e3c77a" opacity=".85"/><circle cx="360.6" cy="581.7" r="1.5" fill="#e3c77a"/><circle cx="259.4" cy="465.9" r="2.9" fill="#e3c77a" opacity=".85"/><circle cx="255.8" cy="471.0" r="2.9" fill="#e3c77a" opacity=".85"/><circle cx="249.8" cy="469.1" r="2.9" fill="#e3c77a" opacity=".85"/><circle cx="249.8" cy="462.8" r="2.9" fill="#e3c77a" opacity=".85"/><circle cx="255.8" cy="460.9" r="2.9" fill="#e3c77a" opacity=".85"/><circle cx="254.1" cy="465.9" r="2.1" fill="#e3c77a"/><circle cx="354.5" cy="400.7" r="2.4" fill="#e3c77a" opacity=".85"/><circle cx="351.6" cy="404.8" r="2.4" fill="#e3c77a" opacity=".85"/><circle cx="346.8" cy="403.3" r="2.4" fill="#e3c77a" opacity=".85"/><circle cx="346.8" cy="398.2" r="2.4" fill="#e3c77a" opacity=".85"/><circle cx="351.6" cy="396.6" r="2.4" fill="#e3c77a" opacity=".85"/><circle cx="350.2" cy="400.7" r="1.7" fill="#e3c77a"/><circle cx="331.4" cy="469.0" r="2.8" fill="#e3c77a" opacity=".85"/><circle cx="327.9" cy="473.8" r="2.8" fill="#e3c77a" opacity=".85"/><circle cx="322.2" cy="472.0" r="2.8" fill="#e3c77a" opacity=".85"/><circle cx="322.2" cy="466.0" r="2.8" fill="#e3c77a" opacity=".85"/><circle cx="327.9" cy="464.2" r="2.8" fill="#e3c77a" opacity=".85"/><circle cx="326.3" cy="469.0" r="2.0" fill="#e3c77a"/><circle cx="383.9" cy="540.2" r="3.4" fill="#e3c77a" opacity=".85"/><circle cx="379.6" cy="546.1" r="3.4" fill="#e3c77a" opacity=".85"/><circle cx="372.6" cy="543.8" r="3.4" fill="#e3c77a" opacity=".85"/><circle cx="372.6" cy="536.5" r="3.4" fill="#e3c77a" opacity=".85"/><circle cx="379.6" cy="534.2" r="3.4" fill="#e3c77a" opacity=".85"/><circle cx="377.6" cy="540.2" r="2.5" fill="#e3c77a"/><circle cx="279.7" cy="591.3" r="2.8" fill="#e3c77a" opacity=".85"/><circle cx="276.2" cy="596.1" r="2.8" fill="#e3c77a" opacity=".85"/><circle cx="270.6" cy="594.3" r="2.8" fill="#e3c77a" opacity=".85"/><circle cx="270.6" cy="588.4" r="2.8" fill="#e3c77a" opacity=".85"/><circle cx="276.2" cy="586.5" r="2.8" fill="#e3c77a" opacity=".85"/><circle cx="274.7" cy="591.3" r="2.0" fill="#e3c77a"/>
<text x="300" y="784" text-anchor="middle" font-family="Georgia,serif" font-size="11" letter-spacing="6" fill="#c9a24a" opacity=".8">EASHAL MIRHA</text>
</svg>